<svg width="267" height="9" viewBox="0 0 267 9" fill="none" xmlns="http://www.w3.org/2000/svg">
<path d="M1.12167 4.14645C0.926404 4.34171 0.926404 4.65829 1.12167 4.85355L4.30365 8.03553C4.49891 8.2308 4.81549 8.2308 5.01075 8.03553C5.20602 7.84027 5.20602 7.52369 5.01075 7.32843L2.18233 4.5L5.01075 1.67157C5.20602 1.47631 5.20602 1.15973 5.01075 0.964466C4.81549 0.769204 4.49891 0.769204 4.30365 0.964466L1.12167 4.14645ZM266.37 4.85355C266.565 4.65829 266.565 4.34171 266.37 4.14645L263.188 0.964466C262.993 0.769204 262.676 0.769204 262.481 0.964466C262.286 1.15973 262.286 1.47631 262.481 1.67157L265.31 4.5L262.481 7.32843C262.286 7.52369 262.286 7.84027 262.481 8.03553C262.676 8.2308 262.993 8.2308 263.188 8.03553L266.37 4.85355ZM1.47522 5H266.017V4H1.47522V5Z" fill="#D9D9D9"/>
</svg>
