<svg width="20" height="21" viewBox="0 0 20 21" fill="none" xmlns="http://www.w3.org/2000/svg">
<g clip-path="url(#clip0_186_539)">
<path d="M15.5627 6.51071C16.3352 7.33121 16.7499 8.25146 16.7499 9.74321C16.7499 12.3682 14.9072 14.721 12.2274 15.8842L11.5577 14.8507C14.0589 13.4977 14.5479 11.742 14.7429 10.635C14.3402 10.8435 13.8129 10.9162 13.2962 10.8682C11.9432 10.743 10.8767 9.63221 10.8767 8.25146C10.8767 7.55527 11.1533 6.88759 11.6455 6.39531C12.1378 5.90303 12.8055 5.62646 13.5017 5.62646C14.3064 5.62646 15.0759 5.99396 15.5627 6.51071ZM8.06269 6.51071C8.83519 7.33121 9.24994 8.25146 9.24994 9.74321C9.24994 12.3682 7.40719 14.721 4.72744 15.8842L4.05769 14.8507C6.55894 13.4977 7.04794 11.742 7.24294 10.635C6.84019 10.8435 6.31294 10.9162 5.79619 10.8682C4.44319 10.743 3.37744 9.63221 3.37744 8.25146C3.37744 7.55527 3.654 6.88759 4.14629 6.39531C4.63857 5.90303 5.30625 5.62646 6.00244 5.62646C6.80719 5.62646 7.57594 5.99396 8.06269 6.51071Z" fill="#4D0099"/>
</g>
<defs>
<clipPath id="clip0_186_539">
<rect width="20" height="20" fill="white" transform="translate(0 0.5)"/>
</clipPath>
</defs>
</svg>
