<svg width="20" height="20" viewBox="0 0 20 20" fill="none" xmlns="http://www.w3.org/2000/svg">
<g clip-path="url(#clip0_180_421)">
<g clip-path="url(#clip1_180_421)">
<path d="M10.1235 8.31338C9.55663 8.31338 9.01295 8.52673 8.61209 8.90649C8.21124 9.28625 7.98603 9.80132 7.98603 10.3384C7.98603 10.8754 8.21124 11.3905 8.61209 11.7703C9.01295 12.15 9.55663 12.3634 10.1235 12.3634C10.6904 12.3634 11.2341 12.15 11.635 11.7703C12.0358 11.3905 12.261 10.8754 12.261 10.3384C12.261 9.80132 12.0358 9.28625 11.635 8.90649C11.2341 8.52673 10.6904 8.31338 10.1235 8.31338ZM10.1235 6.96338C11.0684 6.96338 11.9745 7.31896 12.6426 7.95189C13.3107 8.58483 13.686 9.44327 13.686 10.3384C13.686 11.2335 13.3107 12.0919 12.6426 12.7249C11.9745 13.3578 11.0684 13.7134 10.1235 13.7134C9.1787 13.7134 8.27256 13.3578 7.60447 12.7249C6.93637 12.0919 6.56104 11.2335 6.56104 10.3384C6.56104 9.44327 6.93637 8.58483 7.60447 7.95189C8.27256 7.31896 9.1787 6.96338 10.1235 6.96338ZM14.7548 6.79463C14.7548 7.01841 14.661 7.23302 14.4939 7.39125C14.3269 7.54948 14.1004 7.63838 13.8642 7.63838C13.628 7.63838 13.4014 7.54948 13.2344 7.39125C13.0674 7.23302 12.9735 7.01841 12.9735 6.79463C12.9735 6.57085 13.0674 6.35624 13.2344 6.19801C13.4014 6.03977 13.628 5.95088 13.8642 5.95088C14.1004 5.95088 14.3269 6.03977 14.4939 6.19801C14.661 6.35624 14.7548 6.57085 14.7548 6.79463ZM10.1235 4.93838C8.36081 4.93838 8.07296 4.9431 7.25287 4.97753C6.69427 5.0025 6.3195 5.07338 5.9718 5.20163C5.66256 5.31503 5.43956 5.4507 5.2023 5.67615C4.97929 5.88027 4.80782 6.12947 4.7007 6.40515C4.56532 6.7359 4.49051 7.09028 4.46486 7.6188C4.42781 8.364 4.42354 8.62455 4.42354 10.3384C4.42354 12.0083 4.42852 12.281 4.46486 13.058C4.49122 13.5865 4.56604 13.9422 4.7007 14.2709C4.82182 14.5646 4.96432 14.7758 5.20087 14.9999C5.44099 15.2267 5.664 15.3624 5.97037 15.4745C6.32235 15.6034 6.69712 15.6749 7.25287 15.6992C8.03947 15.7343 8.3145 15.7384 10.1235 15.7384C11.8863 15.7384 12.1741 15.7337 12.9942 15.6992C13.5514 15.6743 13.9269 15.6034 14.2746 15.4758C14.5831 15.3617 14.8075 15.2261 15.0441 15.002C15.2842 14.7745 15.4274 14.5632 15.5457 14.273C15.681 13.9402 15.7566 13.5845 15.7822 13.058C15.8193 12.3128 15.8235 12.0522 15.8235 10.3384C15.8235 8.66843 15.8185 8.39573 15.7822 7.6188C15.7558 7.09095 15.681 6.73455 15.5457 6.40515C15.4383 6.12976 15.2671 5.88065 15.0448 5.67615C14.8294 5.46477 14.5663 5.30232 14.2753 5.20095C13.9261 5.0727 13.5514 5.00183 12.9942 4.97753C12.2076 4.94243 11.9326 4.93838 10.1235 4.93838ZM10.1235 3.58838C12.0594 3.58838 12.3009 3.59513 13.0605 3.62888C13.8193 3.66263 14.3358 3.77535 14.7904 3.94275C15.2607 4.1142 15.6568 4.3464 16.053 4.72103C16.4153 5.05846 16.6956 5.46663 16.8745 5.91713C17.0505 6.3471 17.1702 6.83715 17.2058 7.55603C17.2393 8.27558 17.2485 8.5044 17.2485 10.3384C17.2485 12.1724 17.2414 12.4012 17.2058 13.1207C17.1702 13.8396 17.0505 14.329 16.8745 14.7596C16.6961 15.2104 16.4157 15.6186 16.053 15.9557C15.6967 16.2988 15.2659 16.5644 14.7904 16.734C14.3365 16.9007 13.8193 17.0141 13.0605 17.0479C12.3009 17.0796 12.0594 17.0884 10.1235 17.0884C8.18766 17.0884 7.94614 17.0816 7.18661 17.0479C6.4278 17.0141 5.91123 16.9007 5.45666 16.734C4.98094 16.5649 4.55002 16.2993 4.19411 15.9557C3.83174 15.6184 3.55139 15.2102 3.3726 14.7596C3.1959 14.3297 3.07691 13.8396 3.04129 13.1207C3.0078 12.4012 2.99854 12.1724 2.99854 10.3384C2.99854 8.5044 3.00566 8.27558 3.04129 7.55603C3.07691 6.83648 3.1959 6.34778 3.3726 5.91713C3.55089 5.46635 3.83131 5.05807 4.19411 4.72103C4.55013 4.37761 4.98101 4.112 5.45666 3.94275C5.91123 3.77535 6.42708 3.66263 7.18661 3.62888C7.94614 3.59715 8.18766 3.58838 10.1235 3.58838Z" fill="#0A0D14"/>
</g>
</g>
<defs>
<clipPath id="clip0_180_421">
<rect width="20" height="19" fill="white" transform="translate(0 0.5)"/>
</clipPath>
<clipPath id="clip1_180_421">
<rect width="20" height="19" fill="white" transform="translate(0 0.5)"/>
</clipPath>
</defs>
</svg>
