<svg viewBox="0 0 1200 248" xmlns:xlink="http://www.w3.org/1999/xlink" xmlns="http://www.w3.org/2000/svg" width="1200" height="248" fill="#000"><g clip-path="url(#a)"><path fill="#000" d="M63.52 111.36 188.44 246h-36.72L31.84 119.28V246H1.24V1.56h30.6v102.96L150.64 1.56h39.6L63.52 111.36Zm324.152 67.32h-107.64L254.472 246h-32.4l96.48-244.44h32.76L444.552 246h-32.4l-24.48-67.32Zm-9.36-25.56-43.56-120.24-45.36 120.24h88.92Zm279 66.96V246h-148.32V1.56h30.96v218.52h117.36Zm149.695 30.24c-22.32 0-42.12-5.28-59.4-15.84-17.04-10.56-30.36-25.44-39.96-44.64-9.6-19.2-14.4-41.16-14.4-65.88 0-24.96 4.8-47.04 14.4-66.24 9.6-19.2 22.92-34.08 39.96-44.64 17.28-10.56 37.08-15.84 59.4-15.84s42 5.28 59.04 15.84c17.28 10.56 30.72 25.44 40.32 44.64 9.6 19.2 14.4 41.28 14.4 66.24 0 24.72-4.8 46.68-14.4 65.88-9.6 19.2-23.04 34.08-40.32 44.64-17.04 10.56-36.72 15.84-59.04 15.84Zm0-25.56c16.8 0 31.44-4.08 43.92-12.24s22.08-19.8 28.8-34.92c6.96-15.12 10.44-33 10.44-53.64s-3.48-38.52-10.44-53.64c-6.72-15.36-16.32-27.12-28.8-35.28s-27.12-12.24-43.92-12.24-31.44 4.08-43.92 12.24-22.2 19.92-29.16 35.28c-6.72 15.12-10.08 33-10.08 53.64s3.36 38.52 10.08 53.64c6.96 15.12 16.68 26.76 29.16 34.92s27.12 12.24 43.92 12.24ZM1198.28 1.56V246h-28.44L1026.56 47.28V246h-28.801V1.56h28.801l143.28 196.56V1.56h28.44Z"/></g><defs><clipPath id="a"><path fill="#000" d="M0 0h1200v248H0z"/></clipPath></defs></svg>