<?xml version="1.0" standalone="no"?>
<!DOCTYPE svg PUBLIC "-//W3C//DTD SVG 20010904//EN"
 "http://www.w3.org/TR/2001/REC-SVG-20010904/DTD/svg10.dtd">
<svg version="1.0" xmlns="http://www.w3.org/2000/svg"
 width="250.000000pt" height="250.000000pt" viewBox="0 0 250.000000 250.000000"
 preserveAspectRatio="xMidYMid meet">

<g transform="translate(0.000000,250.000000) scale(0.100000,-0.100000)"
fill="#000000" stroke="none">
<path d="M70 2468 l0 -32 -28 27 c-15 15 -31 27 -34 27 -3 0 -6 -36 -6 -80
l-1 -81 35 42 c18 22 34 45 34 50 0 5 5 9 12 9 6 0 19 7 29 16 15 13 21 14 41
2 13 -7 28 -13 34 -13 6 0 23 -13 37 -29 21 -22 24 -32 17 -47 -19 -35 -12
-41 38 -33 26 4 61 8 77 8 21 1 33 8 40 24 15 34 36 22 53 -30 12 -39 19 -48
37 -48 21 0 35 17 35 41 0 5 -6 9 -14 9 -8 0 -22 7 -31 16 -21 22 -4 41 40 46
27 3 30 0 31 -27 0 -16 4 -38 8 -47 4 -9 2 -26 -4 -38 -7 -14 -9 -39 -5 -66 6
-40 4 -46 -29 -79 -43 -42 -45 -62 -10 -75 39 -15 43 -13 46 33 3 37 6 42 29
45 36 4 47 58 18 84 -20 17 -25 39 -11 52 4 5 7 29 7 54 0 40 4 48 26 59 15 7
33 20 40 29 12 15 9 21 -25 50 -31 27 -42 31 -53 22 -10 -8 -17 -8 -25 0 -7 7
-24 12 -39 12 -29 0 -43 -21 -34 -51 9 -26 -11 -32 -44 -13 -40 23 -62 13 -55
-25 5 -24 2 -30 -15 -36 -12 -4 -27 -2 -34 3 -7 6 -25 12 -42 14 -27 3 -30 7
-32 40 -1 21 2 40 7 43 17 11 11 25 -11 25 -11 0 -29 -10 -38 -22 l-18 -21
-31 21 c-17 13 -45 22 -66 22 -34 0 -36 -2 -36 -32z m482 -10 c8 -21 -2 -38
-23 -38 -21 0 -25 20 -7 38 15 15 25 15 30 0z m76 -30 c-7 -19 -38 -22 -38 -4
0 10 9 16 21 16 12 0 19 -5 17 -12z"/>
<path d="M330 2491 c0 -5 6 -14 14 -20 12 -10 17 -8 26 8 9 19 8 21 -15 21
-14 0 -25 -4 -25 -9z"/>
<path d="M418 2488 c9 -9 15 -9 24 0 9 9 7 12 -12 12 -19 0 -21 -3 -12 -12z"/>
<path d="M650 2490 c0 -5 15 -13 33 -18 20 -6 31 -14 28 -23 -2 -8 -3 -21 -2
-29 8 -77 6 -95 -15 -98 -11 -2 -27 4 -34 13 -21 25 -40 18 -40 -14 0 -24 3
-28 20 -24 22 6 28 -15 9 -34 -6 -6 -8 -16 -5 -22 12 -19 36 -12 48 14 6 14
17 25 25 25 22 0 26 -27 9 -52 -9 -12 -16 -30 -16 -40 0 -20 -65 -91 -92 -101
-30 -11 -20 -27 17 -27 37 0 44 -14 25 -50 -7 -13 -5 -21 6 -31 14 -11 20 -9
40 14 25 29 64 37 64 12 0 -9 8 -18 18 -22 9 -3 26 -16 38 -30 19 -23 21 -23
57 -8 20 8 46 15 57 15 15 0 20 7 20 25 0 22 4 25 33 25 18 0 41 -6 51 -13 15
-11 17 -17 7 -35 -9 -17 -20 -21 -43 -19 -26 2 -35 -3 -46 -25 -14 -30 -31
-35 -50 -16 -19 19 -26 1 -12 -31 12 -30 8 -51 -11 -51 -5 0 -13 8 -16 17 -8
21 -52 63 -65 63 -5 0 -16 16 -24 36 -12 29 -18 34 -37 28 -12 -3 -26 -10 -32
-15 -5 -5 -21 -9 -36 -9 -42 0 -44 -17 -6 -59 45 -50 53 -75 32 -107 -15 -23
-14 -25 2 -30 10 -3 29 -10 43 -14 58 -19 100 -21 106 -5 9 22 -12 43 -39 39
-22 -4 -41 7 -66 39 -20 26 0 44 44 39 31 -4 35 -7 35 -34 0 -25 4 -29 23 -26
17 2 23 -2 25 -22 4 -39 24 -110 30 -110 8 0 52 51 52 60 0 4 -11 15 -25 24
-30 20 -32 39 -5 66 11 11 22 32 26 47 4 16 11 34 17 41 12 15 53 16 63 1 4
-7 21 -9 44 -5 32 5 38 3 43 -14 6 -22 32 -27 43 -8 4 6 -2 19 -14 29 -26 21
-27 27 -5 51 16 18 15 18 -17 16 -27 -2 -35 1 -38 16 -5 23 23 47 44 39 8 -3
14 0 14 6 0 6 -18 14 -40 17 -22 4 -40 10 -40 15 0 15 38 20 124 15 50 -3 88
-1 92 5 10 17 32 -10 26 -33 -3 -14 2 -26 18 -38 31 -23 21 -55 -15 -46 -30 8
-65 -12 -65 -36 0 -19 25 -25 35 -8 3 6 21 10 39 10 25 0 35 -6 44 -25 12 -26
26 -32 37 -15 11 17 33 11 40 -11 4 -13 1 -27 -9 -38 -15 -17 -19 -17 -51 -2
-18 9 -38 26 -44 39 -13 28 -35 24 -39 -6 -3 -18 2 -22 21 -22 14 0 30 -7 37
-15 7 -8 20 -15 29 -15 13 0 17 -9 16 -40 0 -22 -4 -40 -8 -40 -4 0 -16 0 -26
0 -15 0 -19 6 -18 27 2 22 -3 29 -21 31 -12 2 -26 12 -32 22 -5 10 -21 21 -35
24 -21 5 -24 11 -19 30 3 13 1 27 -5 30 -6 4 -11 16 -11 27 0 10 -7 19 -15 19
-19 0 -19 -23 0 -60 10 -20 12 -31 4 -36 -6 -3 -8 -20 -5 -38 3 -17 2 -37 -3
-45 -7 -11 -14 -10 -39 8 -17 11 -42 21 -57 21 -23 0 -26 -4 -23 -27 3 -24 9
-29 43 -34 22 -4 45 -3 52 3 16 12 27 -24 19 -65 -8 -43 4 -60 37 -51 15 3 27
10 27 14 0 5 -9 6 -20 3 -14 -4 -20 0 -20 11 0 13 6 15 27 10 37 -10 97 -52
105 -75 4 -10 14 -19 23 -19 19 0 19 14 0 30 -8 7 -15 20 -15 30 0 23 -31 50
-57 50 -12 0 -28 3 -37 6 -17 7 -41 78 -31 94 11 17 44 11 55 -10 6 -11 31
-42 55 -68 l44 -47 40 39 c40 39 63 42 54 6 -8 -29 42 -28 58 2 10 19 9 24
-10 36 -39 27 -14 70 35 58 25 -7 26 -9 19 -62 -6 -51 -5 -57 19 -79 15 -14
41 -25 63 -27 37 -3 38 -4 36 -40 -2 -27 2 -38 12 -38 23 0 35 34 33 89 -2 43
2 55 24 77 27 28 53 25 45 -6 -6 -23 10 -50 29 -50 9 0 14 -7 12 -17 -3 -12
-12 -17 -26 -16 -16 2 -22 -3 -22 -17 0 -10 -9 -25 -20 -33 -26 -18 -39 -77
-17 -77 8 0 17 7 21 15 3 8 12 15 21 15 18 0 19 12 3 28 -9 9 -3 12 28 12 23
0 44 -3 47 -6 4 -4 22 -8 42 -10 38 -3 61 20 49 50 -9 23 -23 20 -36 -9 -13
-29 -24 -32 -37 -7 -6 12 -5 23 5 37 8 10 14 27 14 36 0 13 11 20 34 25 44 8
59 -2 53 -32 -2 -15 1 -24 8 -24 17 0 73 -29 81 -42 5 -8 -3 -9 -24 -5 -30 6
-32 5 -32 -21 0 -35 -18 -54 -40 -42 -22 12 -86 6 -105 -10 -31 -26 -10 -55
30 -40 60 23 128 -42 74 -70 -16 -9 -24 -8 -38 4 -15 13 -24 14 -46 6 -23 -9
-30 -7 -41 7 -31 39 -36 54 -23 69 24 29 -1 26 -31 -5 -38 -38 -77 -41 -89 -8
-11 29 -29 44 -63 52 -21 5 -29 2 -38 -15 -18 -34 -5 -53 30 -45 35 8 40 -7
13 -38 -18 -20 -17 -20 42 -14 33 3 78 9 99 13 39 7 39 7 33 -22 -3 -17 -2
-36 3 -44 5 -8 3 -22 -7 -36 -13 -21 -13 -23 6 -33 29 -16 31 -15 31 30 0 36
2 40 20 34 13 -4 22 -1 26 9 3 9 12 16 20 16 18 0 18 -9 -2 -31 -18 -20 -12
-53 9 -47 6 3 16 14 22 26 11 24 38 37 56 27 7 -5 5 -13 -6 -25 -9 -10 -14
-24 -10 -31 6 -8 10 -7 17 5 7 13 17 16 38 11 37 -8 50 12 21 34 -17 13 -20
23 -15 49 4 18 11 35 15 38 20 12 8 34 -17 34 -20 0 -25 4 -20 16 3 9 6 18 6
20 0 2 11 4 24 4 13 0 29 7 36 15 9 11 16 13 24 5 5 -5 20 -10 32 -10 13 0 26
-5 30 -11 4 -7 9 -8 13 -1 3 6 18 13 33 17 28 7 30 5 43 -62 5 -25 2 -34 -17
-47 -35 -25 -48 -20 -48 19 0 37 -8 43 -29 23 -10 -9 -15 -10 -18 -2 -9 26
-31 47 -41 40 -21 -13 -13 -46 13 -58 29 -13 31 -21 11 -37 -11 -10 -20 -10
-36 -1 -12 6 -23 10 -26 8 -2 -3 5 -29 16 -58 13 -36 16 -58 10 -64 -14 -14
-12 -46 3 -46 7 0 18 5 24 11 9 9 21 3 47 -22 20 -18 36 -39 36 -46 0 -16 32
-17 48 -1 17 17 15 31 -3 24 -8 -3 -15 -1 -15 4 0 6 7 10 16 10 9 0 14 6 12
13 -3 6 -26 14 -51 17 -40 4 -50 10 -62 34 -21 41 -19 63 11 82 20 13 28 14
37 5 9 -10 6 -17 -15 -33 -44 -32 -36 -46 25 -45 28 1 62 -2 75 -6 21 -8 23
-6 23 30 0 21 2 60 5 86 5 38 3 51 -10 60 -14 10 -15 17 -5 45 6 18 9 36 5 39
-3 4 4 17 16 30 21 22 21 24 4 41 -19 19 -13 23 -69 -53 -12 -15 -18 -17 -29
-7 -15 12 -27 13 -100 12 -38 0 -49 12 -25 27 6 4 20 6 30 5 10 -2 17 3 17 13
0 11 -6 14 -23 10 -15 -4 -28 -1 -36 9 -8 9 -22 16 -32 16 -14 0 -20 10 -25
50 -7 53 -16 60 -45 34 -30 -27 -109 9 -115 53 -2 13 6 14 42 10 24 -2 47 -1
50 4 2 5 18 6 35 2 26 -5 30 -3 28 13 -2 10 -1 24 3 29 8 14 -2 75 -13 75 -7
0 -22 -18 -25 -30 -4 -22 -19 -40 -33 -40 -9 0 -21 -4 -26 -9 -6 -4 -24 -11
-42 -14 -24 -5 -35 -2 -42 11 -9 15 -11 15 -30 -2 -18 -17 -24 -17 -66 -5 -46
14 -65 36 -20 25 19 -5 28 -1 40 18 9 13 24 26 34 29 14 3 17 11 14 30 -4 19
0 27 16 32 11 3 25 3 31 0 16 -10 24 23 10 41 -18 20 3 45 22 26 22 -22 40
-14 36 16 -3 26 -5 27 -57 24 -41 -3 -52 -1 -48 10 2 7 10 12 17 10 14 -3 30
15 30 36 0 14 -32 16 -45 3 -16 -16 -94 -1 -100 19 -6 20 -32 33 -46 24 -17
-10 -9 -46 10 -51 28 -7 36 -35 15 -50 -27 -20 -43 -16 -50 12 -3 14 -10 25
-16 25 -5 0 -6 -10 -2 -22 5 -17 0 -27 -21 -44 -22 -17 -28 -31 -31 -69 -1
-26 2 -55 8 -65 12 -19 3 -70 -12 -70 -6 0 -15 11 -20 25 -5 14 -17 25 -26 25
-11 0 -14 -5 -10 -17 5 -13 1 -12 -18 6 -17 16 -31 21 -45 16 -24 -7 -77 28
-84 56 -3 10 -16 23 -29 28 -12 5 -33 27 -46 50 -21 38 -22 41 -5 41 22 -1 56
-28 72 -58 14 -26 57 -31 47 -6 -3 9 -9 27 -12 40 -3 13 -12 24 -19 24 -7 0
-18 7 -26 16 -7 8 -30 24 -50 35 -35 17 -39 18 -54 3 -14 -14 -20 -15 -41 -3
-16 8 -24 19 -21 30 7 26 -8 42 -32 34 -18 -5 -19 -10 -10 -27 9 -17 7 -24 -9
-41 -29 -29 -56 -16 -47 23 6 27 4 30 -18 30 -38 0 -52 23 -32 54 21 31 41 33
50 6 7 -22 39 -27 51 -8 4 6 -2 18 -13 27 -28 24 -56 68 -48 80 3 6 20 14 38
19 34 9 54 52 23 52 -21 0 -30 18 -16 35 20 24 49 18 56 -10 3 -14 10 -23 14
-20 7 4 22 -106 15 -113 -2 -2 -15 4 -30 14 -20 13 -29 14 -38 5 -9 -10 -3
-20 28 -47 22 -19 54 -49 72 -65 23 -23 37 -29 53 -24 26 8 12 30 -25 39 -18
5 -25 13 -25 31 0 30 3 30 40 9 17 -10 35 -14 46 -10 17 7 17 9 -9 32 -15 13
-37 24 -48 24 -10 0 -19 7 -19 15 0 9 9 15 23 15 12 0 29 5 37 10 13 8 12 11
-5 24 -11 9 -24 16 -29 16 -6 0 -27 12 -48 26 -29 20 -38 33 -38 55 0 22 5 29
20 29 11 0 20 4 20 9 0 4 -31 8 -70 7 -60 0 -69 -3 -65 -17 7 -20 -19 -43 -40
-35 -8 3 -15 1 -15 -4 0 -6 6 -10 13 -10 6 0 21 -7 31 -15 28 -21 4 -48 -35
-40 -33 7 -69 -12 -69 -37 0 -21 11 -23 28 -6 22 22 39 -7 33 -54 -5 -35 -10
-44 -28 -46 -16 -2 -23 2 -23 12 0 9 -13 30 -29 48 -25 28 -31 30 -45 19 -13
-11 -19 -10 -39 6 -15 11 -40 18 -63 18 -35 0 -39 -3 -42 -27 -3 -29 -16 -36
-27 -18 -4 6 -1 18 6 26 10 12 9 18 -3 31 -21 20 -39 8 -36 -25 2 -18 -2 -27
-13 -30 -12 -2 -18 8 -23 38 -8 51 -2 62 32 59 15 -1 39 -1 55 -1 27 2 27 2
12 32 -8 16 -15 40 -15 55 0 16 -6 25 -15 25 -11 0 -14 -7 -9 -24 7 -28 -8
-40 -37 -31 -16 5 -20 13 -16 31 4 23 2 24 -49 24 -30 0 -54 -4 -54 -10z m110
-70 c0 -5 -4 -10 -10 -10 -5 0 -10 5 -10 10 0 6 5 10 10 10 6 0 10 -4 10 -10z
m156 -131 c3 -6 18 -9 33 -6 29 6 61 -8 61 -25 0 -16 -41 -58 -56 -58 -7 0
-16 9 -19 20 -4 14 -14 20 -27 18 -28 -4 -46 25 -29 46 16 19 27 20 37 5z
m-101 -49 c3 -6 3 -19 0 -30 -6 -20 -7 -20 -26 4 -10 13 -19 27 -19 30 0 10
38 7 45 -4z m228 -102 c3 -40 5 -73 4 -74 -1 -1 -26 -4 -55 -8 -52 -7 -52 -7
-58 24 -4 17 -10 32 -14 35 -12 7 -50 -7 -44 -17 10 -16 11 -82 2 -100 -5 -10
-17 -18 -28 -18 -15 0 -19 8 -22 38 -3 33 -6 37 -30 35 -15 -1 -29 5 -32 12
-6 17 -1 21 47 29 20 4 37 11 37 17 0 17 -30 22 -55 9 -27 -14 -45 -7 -45 19
0 33 27 46 66 32 40 -14 74 -7 74 16 0 14 4 13 23 -5 12 -11 33 -23 47 -27 20
-5 28 0 42 25 9 16 21 30 26 30 5 0 12 -32 15 -72z m87 -24 c0 -16 -16 -19
-25 -4 -8 13 4 32 16 25 5 -4 9 -13 9 -21z m-380 -28 c0 -15 -21 -26 -51 -26
-23 0 -25 23 -3 44 18 18 54 6 54 -18z m1070 -26 c0 -21 -15 -27 -25 -10 -7
12 2 30 16 30 5 0 9 -9 9 -20z m43 -64 c-1 -17 -9 -34 -18 -38 -8 -5 -15 -22
-15 -39 0 -29 -1 -30 -35 -23 -27 5 -36 3 -41 -10 -3 -9 -15 -16 -25 -16 -15
0 -19 7 -19 37 0 20 -7 45 -17 55 -24 26 -5 41 58 44 28 1 57 8 63 14 6 6 20
9 31 8 15 -2 20 -10 18 -32z m-786 -78 c-3 -8 -6 -5 -6 6 -1 11 2 17 5 13 3
-3 4 -12 1 -19z m-319 -10 c20 -20 14 -38 -12 -38 -28 0 -40 14 -32 35 7 18
28 19 44 3z m782 -72 c0 -25 -43 -27 -64 -4 -16 17 -17 20 -4 16 10 -4 19 -1
22 8 4 12 10 12 26 4 11 -6 20 -17 20 -24z m194 -21 c20 -26 34 -35 57 -35 24
0 30 -4 27 -17 -2 -12 -11 -17 -26 -15 -13 2 -25 -3 -28 -12 -4 -9 -18 -16
-34 -16 -34 0 -43 -18 -22 -43 23 -26 8 -31 -37 -11 -48 21 -56 36 -30 59 12
12 17 25 13 40 -3 14 0 24 9 28 10 3 13 14 10 31 -8 39 29 34 61 -9z m-249
-40 c0 -25 -4 -30 -25 -30 -21 0 -26 5 -28 33 -3 31 -2 33 25 30 24 -3 28 -8
28 -33z m435 -45 c6 -11 8 -31 4 -45 -9 -35 -45 -30 -58 7 -16 47 31 81 54 38z
m200 -190 c0 -5 -7 -10 -16 -10 -8 0 -12 5 -9 10 3 6 10 10 16 10 5 0 9 -4 9
-10z m-50 -144 c0 -3 -4 -8 -10 -11 -5 -3 -10 -1 -10 4 0 6 5 11 10 11 6 0 10
-2 10 -4z m278 -27 c-2 -6 -8 -10 -13 -10 -5 0 -11 4 -13 10 -2 6 4 11 13 11
9 0 15 -5 13 -11z"/>
<path d="M990 2120 c0 -5 5 -10 10 -10 6 0 10 5 10 10 0 6 -4 10 -10 10 -5 0
-10 -4 -10 -10z"/>
<path d="M1775 1960 c3 -5 13 -10 21 -10 8 0 14 5 14 10 0 6 -9 10 -21 10 -11
0 -17 -4 -14 -10z"/>
<path d="M1676 1773 c-4 -9 -1 -20 6 -24 16 -10 43 15 34 30 -11 16 -33 13
-40 -6z"/>
<path d="M883 2455 c8 -56 31 -103 41 -86 5 7 5 39 1 72 -6 50 -10 59 -27 59
-19 0 -20 -4 -15 -45z"/>
<path d="M955 2490 c3 -5 10 -10 16 -10 5 0 9 5 9 10 0 6 -7 10 -16 10 -8 0
-12 -4 -9 -10z"/>
<path d="M1430 2477 c0 -27 17 -47 40 -47 12 0 16 10 16 35 0 32 -3 35 -28 35
-23 0 -28 -4 -28 -23z"/>
<path d="M1584 2491 c3 -5 14 -7 24 -4 12 3 23 -4 32 -22 13 -24 12 -28 -3
-36 -9 -6 -17 -17 -17 -24 0 -8 -4 -15 -10 -15 -5 0 -10 11 -10 24 0 24 -16
36 -50 36 -27 0 -34 -19 -15 -40 13 -14 14 -23 6 -38 -17 -32 9 -46 78 -39 37
3 63 1 70 -6 15 -15 13 -58 -3 -79 -18 -25 -26 -22 -26 7 0 28 -2 28 -76 25
-44 -1 -54 2 -68 21 -11 17 -13 26 -5 36 15 18 4 43 -20 43 -27 0 -34 -15 -16
-30 11 -9 14 -23 9 -45 -6 -36 14 -60 43 -51 11 3 30 -5 48 -20 l30 -24 -35 6
c-19 4 -40 11 -46 16 -17 13 -64 -12 -64 -33 0 -21 16 -34 25 -19 10 16 45 12
52 -6 3 -8 1 -20 -6 -27 -18 -18 -13 -29 12 -25 14 2 29 17 41 43 11 21 21 34
24 27 2 -7 12 -12 22 -12 10 0 22 -9 25 -20 14 -43 61 -10 49 34 -3 15 -2 32
4 39 6 6 13 28 17 48 5 28 3 38 -9 42 -20 8 -22 77 -3 96 10 10 7 16 -15 33
-16 11 -28 26 -28 34 0 10 -13 14 -46 14 -25 0 -43 -4 -40 -9z m94 -113 c-3
-7 -11 -13 -18 -13 -7 0 -15 6 -17 13 -3 7 4 12 17 12 13 0 20 -5 18 -12z
m-83 -8 c3 -5 -3 -10 -14 -10 -12 0 -21 5 -21 10 0 6 6 10 14 10 8 0 18 -4 21
-10z m35 -125 c0 -8 -4 -15 -10 -15 -5 0 -10 7 -10 15 0 8 5 15 10 15 6 0 10
-7 10 -15z"/>
<path d="M1708 2493 c7 -3 16 -2 19 1 4 3 -2 6 -13 5 -11 0 -14 -3 -6 -6z"/>
<path d="M1843 2469 c-11 -28 -16 -31 -43 -26 -33 7 -60 0 -60 -15 0 -6 19
-27 42 -47 25 -23 39 -42 34 -49 -12 -19 -33 -14 -40 10 -4 18 -8 20 -17 11
-18 -18 5 -63 31 -63 28 0 34 -20 20 -70 -7 -27 -8 -46 -2 -52 15 -15 82 2 83
21 0 12 2 12 6 2 9 -22 42 -51 58 -51 8 0 19 -9 25 -20 15 -27 28 -25 43 8 6
15 17 31 24 35 9 5 10 15 2 34 -11 31 -3 63 17 63 8 0 14 10 14 23 0 12 3 32
6 44 4 16 1 25 -11 29 -20 8 -36 -12 -32 -40 4 -35 -18 -27 -30 11 -11 34 -10
40 8 55 17 14 32 17 75 12 64 -8 74 4 55 67 -12 39 -12 39 -62 39 -43 0 -55
-5 -83 -32 l-34 -33 3 -92 c2 -58 9 -100 18 -115 8 -13 18 -33 22 -45 5 -18 2
-23 -13 -23 -15 0 -21 9 -26 35 -7 34 -30 48 -38 23 -3 -7 -9 -8 -19 -3 -8 5
-26 8 -40 7 -18 -2 -29 3 -33 14 -10 25 8 38 33 24 30 -15 44 -3 37 31 -4 22
0 35 15 50 15 15 18 24 9 34 -6 7 -8 25 -4 39 4 16 2 26 -5 26 -6 0 -11 -8
-11 -17 -1 -20 -33 -63 -48 -63 -16 0 -9 93 8 98 8 3 26 13 39 23 l24 19 -44
0 c-41 0 -46 -3 -56 -31z m217 -24 c0 -18 -17 -28 -25 -15 -4 6 -11 8 -16 5
-13 -9 -11 9 2 22 14 14 39 6 39 -12z m55 -15 c-5 -8 -11 -8 -17 -2 -6 6 -7
16 -3 22 5 8 11 8 17 2 6 -6 7 -16 3 -22z m-280 -30 c3 -5 -1 -10 -10 -10 -9
0 -13 5 -10 10 3 6 8 10 10 10 2 0 7 -4 10 -10z m45 -90 c-20 -12 -33 -1 -19
16 9 11 15 12 23 4 8 -8 7 -13 -4 -20z"/>
<path d="M2205 2490 c4 -6 11 -8 16 -5 14 9 11 15 -7 15 -8 0 -12 -5 -9 -10z"/>
<path d="M2325 2490 c3 -5 13 -10 21 -10 8 0 14 5 14 10 0 6 -9 10 -21 10 -11
0 -17 -4 -14 -10z"/>
<path d="M2416 2484 c-4 -9 -4 -19 -1 -22 6 -6 35 18 35 29 0 16 -28 10 -34
-7z"/>
<path d="M1330 2456 c-13 -34 3 -76 29 -76 10 0 25 -10 34 -22 14 -22 16 -22
33 -6 15 15 15 19 3 34 -8 9 -28 23 -46 30 -23 10 -30 18 -26 33 8 29 -16 36
-27 7z"/>
<path d="M290 2455 c0 -8 7 -15 15 -15 8 0 15 7 15 15 0 8 -7 15 -15 15 -8 0
-15 -7 -15 -15z"/>
<path d="M990 2459 c0 -6 5 -19 11 -30 8 -16 7 -23 -7 -33 -12 -9 -15 -20 -10
-40 6 -23 9 -25 26 -16 11 6 20 21 20 33 0 13 5 28 12 35 17 17 -6 62 -32 62
-11 0 -20 -5 -20 -11z"/>
<path d="M2479 2454 c-10 -11 -19 -28 -21 -39 -2 -12 -13 -21 -28 -23 -14 -2
-29 -8 -34 -13 -11 -9 -46 -13 -46 -4 0 3 5 14 12 24 9 15 9 23 0 34 -16 18
-72 28 -109 18 -33 -9 -42 -36 -15 -43 32 -9 34 -57 5 -95 -27 -36 -50 -42
-60 -17 -3 9 5 27 22 44 30 31 26 50 -8 50 -25 -1 -57 -58 -57 -102 0 -17 -8
-28 -26 -37 -19 -8 -25 -18 -24 -39 3 -44 1 -49 -20 -55 -27 -7 -26 -41 2 -59
29 -20 18 -48 -20 -48 -28 0 -29 -1 -28 -49 1 -27 4 -53 8 -56 12 -13 48 6 48
26 0 10 5 19 10 19 6 0 10 -4 10 -8 0 -20 27 -43 43 -36 24 9 21 49 -5 74 -23
21 -23 22 -4 36 40 29 54 19 62 -46 4 -33 10 -60 13 -60 4 0 12 14 18 31 10
27 14 29 32 19 20 -10 20 -12 5 -35 -17 -26 -11 -65 9 -65 7 0 24 -6 39 -14
24 -13 28 -12 43 5 14 15 16 27 9 65 -5 26 -15 49 -23 52 -10 3 -13 -2 -9 -22
6 -28 -12 -36 -31 -13 -14 18 6 74 29 80 10 2 20 18 23 35 5 23 14 33 32 38
20 5 25 12 25 36 0 27 -2 29 -22 23 -29 -10 -87 -10 -115 0 -18 6 -22 4 -20
-14 1 -15 6 -19 19 -15 12 3 22 -4 32 -25 19 -36 13 -57 -20 -65 -14 -4 -29
-18 -34 -31 -10 -26 -24 -32 -35 -16 -3 5 0 13 6 16 14 9 2 55 -19 72 -20 15
-58 17 -67 3 -12 -20 -35 -10 -35 15 0 15 6 25 14 25 7 0 19 6 25 14 6 7 22
11 35 9 17 -4 26 0 30 14 3 11 22 27 41 36 34 16 40 47 9 47 -8 0 -14 7 -14
15 0 19 17 19 36 0 12 -11 20 -12 35 -5 18 10 18 12 3 35 -17 26 -12 45 11 45
20 0 49 -46 41 -66 -4 -11 12 -35 53 -75 32 -33 64 -59 70 -59 24 0 9 38 -34
84 -25 27 -45 56 -45 63 0 23 30 73 44 73 23 0 48 37 44 65 -3 26 -4 27 -19 9z
m-172 -66 c-3 -8 -6 -5 -6 6 -1 11 2 17 5 13 3 -3 4 -12 1 -19z m-107 -168 c0
-23 -39 -37 -51 -19 -13 20 -11 27 8 37 22 13 43 4 43 -18z m140 -305 c0 -8
-2 -15 -4 -15 -2 0 -6 7 -10 15 -3 8 -1 15 4 15 6 0 10 -7 10 -15z"/>
<path d="M163 2404 c-3 -8 -1 -20 6 -27 14 -14 47 15 37 32 -10 16 -36 13 -43
-5z"/>
<path d="M2487 2353 c-14 -26 -15 -62 -2 -73 13 -11 15 -6 15 34 0 44 -4 55
-13 39z"/>
<path d="M56 2331 c-3 -5 -4 -29 -1 -54 4 -39 1 -47 -15 -52 -11 -4 -25 -3
-31 0 -7 5 -9 -6 -7 -31 3 -34 6 -39 31 -42 19 -2 27 1 27 12 0 23 18 29 36
12 19 -19 36 -20 53 -3 10 10 15 8 29 -9 9 -12 25 -24 35 -27 23 -9 22 -19 -7
-45 -24 -20 -52 -94 -42 -111 3 -4 -2 -17 -10 -29 -13 -18 -19 -20 -36 -11
-27 15 -48 -4 -31 -29 7 -12 21 -16 43 -14 31 3 32 2 27 -24 -3 -15 0 -35 6
-44 14 -23 2 -50 -22 -50 -28 0 -36 18 -16 40 17 18 16 19 -11 17 -21 -1 -31
4 -39 21 -5 12 -18 22 -29 22 -15 0 -16 -3 -6 -15 10 -12 10 -18 0 -30 -7 -8
-19 -15 -26 -15 -8 0 -14 -9 -14 -20 0 -16 7 -20 34 -20 45 0 76 -41 76 -99 0
-36 3 -41 28 -47 15 -4 35 -13 44 -22 26 -22 51 1 43 40 -4 18 -2 35 6 44 11
13 9 19 -11 34 -23 17 -23 18 -6 45 16 24 21 26 59 20 23 -4 42 -8 42 -9 0 0
9 -11 19 -23 16 -20 17 -24 3 -37 -10 -11 -25 -14 -45 -10 -17 3 -32 1 -36 -5
-7 -11 30 -55 55 -63 11 -4 11 -9 -5 -27 -11 -11 -25 -21 -32 -21 -19 0 -28
-20 -15 -33 9 -9 15 -8 22 6 11 18 39 24 39 7 0 -17 29 -11 39 9 8 14 6 23 -9
36 -26 23 -27 65 -2 65 11 0 27 -9 38 -21 15 -17 16 -23 6 -40 -8 -13 -9 -25
-3 -36 5 -11 5 -23 -2 -33 -13 -21 -1 -70 17 -70 15 0 48 34 40 42 -11 11 -13
87 -3 94 6 3 20 -3 32 -14 18 -18 19 -24 7 -51 -19 -47 -1 -64 59 -55 25 4 49
8 53 11 13 7 -2 29 -32 46 -25 15 -28 22 -23 47 6 32 -4 38 -36 21 -13 -7 -26
-4 -49 12 -33 23 -42 47 -18 47 8 0 17 -7 20 -16 10 -27 31 -9 36 32 5 38 6
39 49 42 28 2 47 -1 52 -9 12 -20 0 -30 -22 -19 -24 13 -35 -7 -25 -45 11 -45
60 -23 113 52 18 26 20 33 9 42 -7 6 -20 9 -28 6 -8 -3 -21 1 -28 9 -14 18 0
27 34 23 10 -1 21 4 23 11 3 8 -7 12 -31 12 -28 0 -41 7 -63 35 -15 19 -28 47
-28 63 0 22 -4 27 -25 27 -20 0 -25 5 -25 25 0 18 -6 26 -23 28 -16 2 -22 -2
-22 -15 0 -10 -3 -28 -6 -39 -4 -17 2 -26 31 -44 30 -19 35 -27 30 -47 -8 -33
2 -45 25 -30 17 10 23 8 41 -10 29 -28 16 -47 -26 -39 -19 4 -36 2 -40 -4 -14
-23 -95 -4 -95 24 0 7 9 21 20 31 24 21 26 41 5 49 -8 3 -15 16 -15 30 0 32
-14 40 -34 20 -19 -19 -19 -17 -4 -49 8 -17 8 -29 1 -36 -14 -14 -40 -1 -46
22 -5 20 -37 27 -37 7 0 -6 7 -19 16 -29 11 -13 13 -22 6 -35 -9 -16 -11 -15
-22 7 -7 13 -14 25 -15 27 -2 2 -14 -4 -28 -12 -21 -15 -26 -15 -36 -2 -17 20
-6 36 25 36 13 0 24 5 24 10 0 6 -10 10 -23 10 -19 0 -25 8 -33 43 -6 23 -10
60 -10 82 1 36 4 40 29 43 18 2 29 -2 32 -12 15 -49 18 -51 25 -16 4 22 1 42
-7 55 -18 28 -16 34 13 45 18 7 24 15 20 26 -3 8 1 22 10 31 13 14 14 13 8
-11 -5 -21 -3 -26 14 -26 11 0 25 7 33 16 7 8 21 13 31 11 10 -3 21 -1 24 5 3
5 19 6 35 3 44 -10 48 17 9 56 -32 32 -45 31 -52 -6 -3 -18 -12 -20 -75 -22
-70 -2 -74 -2 -95 27 -25 34 -55 43 -38 11 5 -11 10 -24 10 -30 0 -15 -45 -14
-57 2 -15 18 -14 74 3 87 7 7 11 16 8 21 -7 12 -121 12 -128 0z m69 -31 c3 -5
-1 -10 -9 -10 -9 0 -16 5 -16 10 0 6 4 10 9 10 6 0 13 -4 16 -10z m-85 -110
c0 -5 -4 -10 -10 -10 -5 0 -10 5 -10 10 0 6 5 10 10 10 6 0 10 -4 10 -10z
m239 -16 c7 -6 -21 -34 -34 -34 -12 0 -25 21 -25 41 0 8 48 2 59 -7z m-91
-457 c2 -16 1 -36 -3 -45 -5 -15 -9 -13 -25 8 -11 14 -20 35 -20 48 0 19 5 23
23 20 16 -2 23 -11 25 -31z m232 23 c0 -5 -11 -10 -24 -10 -14 0 -28 5 -31 10
-4 6 7 10 24 10 17 0 31 -4 31 -10z m60 -31 c0 -6 -4 -7 -10 -4 -5 3 -10 11
-10 16 0 6 5 7 10 4 6 -3 10 -11 10 -16z m65 -168 c3 -5 2 -12 -3 -15 -13 -8
-53 5 -46 15 7 12 41 12 49 0z"/>
<path d="M0 2285 c0 -27 1 -28 24 -19 21 8 20 17 -4 32 -18 11 -20 10 -20 -13z"/>
<path d="M320 2280 c0 -11 4 -20 9 -20 11 0 22 26 14 34 -12 12 -23 5 -23 -14z"/>
<path d="M1430 2285 c0 -8 5 -15 10 -15 6 0 10 7 10 15 0 8 -4 15 -10 15 -5 0
-10 -7 -10 -15z"/>
<path d="M365 2281 c-3 -5 2 -16 11 -25 21 -22 62 -3 43 20 -13 16 -45 19 -54
5z"/>
<path d="M2307 2224 c-11 -12 3 -24 29 -24 15 0 24 6 24 15 0 15 -40 21 -53 9z"/>
<path d="M1405 2160 c-7 -12 12 -50 26 -50 5 0 14 -11 19 -25 11 -29 22 -31
44 -9 19 19 12 34 -15 34 -10 0 -19 6 -19 14 0 16 -26 46 -40 46 -5 0 -12 -4
-15 -10z"/>
<path d="M376 2098 c-21 -34 -41 -69 -43 -78 -2 -8 -17 -23 -34 -32 -41 -24
-39 -49 4 -41 41 7 90 52 83 75 -3 14 2 18 19 18 13 0 28 7 32 14 12 21 3 106
-11 106 -6 -1 -29 -28 -50 -62z m43 -17 c-15 -5 -22 6 -14 19 6 9 10 9 16 -1
5 -8 4 -15 -2 -18z"/>
<path d="M50 2116 c0 -23 34 -76 49 -76 9 0 11 8 7 25 -6 23 -3 25 24 25 23 0
30 4 30 20 0 23 -29 27 -48 8 -9 -9 -15 -9 -24 0 -16 16 -38 15 -38 -2z"/>
<path d="M2422 2104 c2 -9 20 -22 41 -29 l37 -13 0 29 c0 27 -3 29 -41 29 -32
0 -40 -3 -37 -16z"/>
<path d="M0 2081 c0 -26 14 -41 41 -41 19 0 8 38 -16 54 -25 16 -25 16 -25
-13z"/>
<path d="M1544 2075 c-4 -9 9 -28 32 -50 20 -19 38 -34 39 -33 1 2 5 15 9 31
5 20 3 27 -9 27 -8 0 -20 9 -27 20 -15 24 -36 26 -44 5z"/>
<path d="M2422 2058 c-5 -7 -8 -31 -7 -53 2 -34 6 -41 26 -43 13 -2 28 -8 34
-13 16 -15 25 -10 25 15 0 20 -4 23 -21 19 -19 -5 -21 -3 -14 26 10 45 -19 78
-43 49z"/>
<path d="M0 1985 c0 -26 4 -35 18 -36 21 -2 43 1 60 6 19 7 -4 45 -28 45 -10
0 -22 5 -25 10 -13 21 -25 9 -25 -25z"/>
<path d="M551 2007 c-17 -17 -13 -37 7 -37 10 0 27 -6 38 -14 18 -13 21 -12
32 4 12 20 6 28 -39 47 -20 9 -29 9 -38 0z"/>
<path d="M1212 2003 c2 -12 12 -18 28 -18 36 0 33 29 -3 33 -23 3 -28 0 -25
-15z"/>
<path d="M125 1990 c4 -6 11 -8 16 -5 14 9 11 15 -7 15 -8 0 -12 -5 -9 -10z"/>
<path d="M1493 1963 c-14 -45 -11 -50 20 -35 12 6 31 11 41 9 29 -3 30 18 1
31 -14 6 -25 16 -25 22 0 26 -26 6 -37 -27z"/>
<path d="M1964 1926 c-7 -18 24 -66 42 -66 21 0 28 27 16 56 -13 26 -49 33
-58 10z m56 -26 c0 -5 -4 -10 -10 -10 -5 0 -10 5 -10 10 0 6 5 10 10 10 6 0
10 -4 10 -10z"/>
<path d="M606 1922 c-3 -6 -1 -14 5 -17 15 -10 25 3 12 16 -7 7 -13 7 -17 1z"/>
<path d="M2152 1892 c-13 -18 -18 -37 -15 -54 4 -23 1 -28 -21 -34 -31 -7 -35
-24 -5 -24 28 0 59 18 59 35 0 19 21 30 30 15 4 -7 5 -20 3 -30 -3 -10 1 -28
7 -40 l12 -23 24 29 c30 37 30 47 -3 76 -16 12 -34 35 -40 51 -16 34 -27 34
-51 -1z"/>
<path d="M2426 1898 c-3 -7 -7 -24 -9 -38 -3 -14 -9 -35 -12 -48 -7 -21 -5
-23 26 -21 19 1 42 -2 52 -6 16 -7 18 -2 15 56 l-3 64 -33 3 c-20 2 -34 -2
-36 -10z m64 -38 c0 -5 -4 -10 -10 -10 -5 0 -10 5 -10 10 0 6 5 10 10 10 6 0
10 -4 10 -10z"/>
<path d="M1912 1879 c1 -12 9 -24 16 -27 9 -3 13 3 10 19 -1 12 -9 24 -16 27
-9 3 -13 -3 -10 -19z"/>
<path d="M1034 1829 c-9 -21 -22 -39 -30 -39 -23 0 -34 -33 -19 -60 9 -17 27
-28 57 -35 43 -11 43 -11 52 -68 7 -48 12 -58 32 -63 13 -3 24 -9 25 -13 1 -3
2 -53 4 -111 2 -101 1 -106 -25 -140 -15 -20 -31 -55 -35 -79 -7 -43 -7 -44
19 -39 22 4 32 -1 54 -28 15 -19 30 -34 34 -34 4 0 15 14 23 31 9 17 29 35 46
41 19 7 31 19 35 36 3 15 12 39 20 54 8 14 14 35 14 45 0 11 7 28 15 39 21 28
18 34 -16 34 -21 0 -39 9 -58 31 -23 24 -33 29 -54 23 -23 -5 -27 -3 -27 17 0
12 7 30 16 40 13 14 13 21 3 37 -7 11 -23 25 -36 31 -18 8 -23 19 -23 46 0 29
-5 37 -25 45 -14 5 -28 17 -31 25 -4 8 -14 15 -25 15 -10 0 -23 9 -29 19 -19
36 -12 61 25 83 41 23 41 39 1 49 -24 7 -28 4 -42 -32z m220 -404 c3 -8 12
-15 19 -15 16 0 30 -50 27 -95 -2 -38 -4 -39 -29 -25 -22 11 -28 39 -12 56 16
16 1 64 -20 64 -11 0 -19 7 -19 15 0 8 6 15 14 15 8 0 16 -7 20 -15z m-34 -60
c0 -18 -5 -25 -20 -25 -23 0 -24 4 -10 31 15 27 30 24 30 -6z m15 -94 c34 -8
46 -38 18 -48 -10 -3 -21 -12 -26 -19 -11 -18 -78 -11 -89 10 -10 18 -1 57 16
69 6 4 20 5 31 1 11 -3 33 -9 50 -13z"/>
<path d="M2311 1836 c-20 -22 -21 -25 -6 -40 33 -33 71 -4 54 42 -11 28 -20
28 -48 -2z"/>
<path d="M2354 1765 c-4 -8 0 -23 7 -32 8 -9 14 -32 14 -52 0 -32 4 -37 33
-46 32 -9 44 -37 22 -50 -18 -11 -11 -35 14 -44 13 -5 26 -19 29 -30 3 -12 10
-21 16 -21 6 0 10 29 10 75 0 75 -1 75 -28 75 -34 0 -51 17 -51 50 0 59 -51
116 -66 75z"/>
<path d="M2262 1728 c-4 -13 -8 -43 -7 -68 0 -51 19 -63 60 -36 30 20 32 42 5
51 -15 5 -19 12 -15 26 7 20 -9 49 -26 49 -5 0 -13 -10 -17 -22z"/>
<path d="M11 1713 c11 -13 11 -17 2 -20 -9 -3 -13 -30 -13 -89 0 -80 1 -84 24
-90 39 -10 81 -1 84 19 2 10 -3 17 -12 17 -23 0 -30 20 -12 39 18 20 20 44 6
69 -5 9 -14 29 -20 45 -8 22 -16 27 -41 27 -28 0 -30 -2 -18 -17z m42 -35 c14
-11 15 -18 5 -50 -10 -35 -30 -49 -42 -30 -7 11 5 92 13 92 4 0 15 -6 24 -12z"/>
<path d="M2139 1723 c-1 -5 -1 -12 0 -16 1 -4 -3 -17 -9 -28 -9 -15 -7 -20 7
-25 10 -3 26 -10 37 -16 14 -7 21 -6 27 4 13 19 11 28 -7 35 -8 3 -20 16 -25
29 -8 23 -28 33 -30 17z"/>
<path d="M717 1628 c5 -73 -7 -100 -34 -80 -10 6 -28 16 -39 21 -12 5 -24 19
-27 30 -7 30 -37 27 -37 -3 0 -14 5 -28 11 -31 5 -4 14 -18 19 -31 9 -22 13
-23 55 -17 40 5 45 4 45 -14 0 -10 -5 -24 -11 -30 -9 -9 -5 -14 15 -19 16 -4
31 -17 36 -30 7 -19 17 -24 43 -24 18 0 42 -6 53 -14 17 -14 18 -16 3 -31 -12
-13 -27 -15 -67 -9 -29 3 -52 11 -52 16 0 5 -4 7 -9 4 -5 -4 -7 3 -4 14 5 17
0 20 -31 20 -43 0 -57 21 -32 49 18 20 10 37 -10 20 -7 -6 -32 -12 -56 -14
-41 -3 -43 -5 -40 -32 4 -41 11 -55 22 -48 6 4 8 15 5 26 -8 24 23 27 32 3 3
-8 16 -20 29 -25 20 -7 24 -15 24 -52 0 -24 -5 -48 -11 -54 -19 -19 1 -36 33
-29 20 4 30 1 34 -9 8 -20 20 -19 28 2 8 19 -8 38 -32 38 -22 0 -22 34 0 48
25 16 58 -17 58 -59 0 -39 14 -51 37 -32 15 12 16 10 10 -13 -5 -18 -2 -31 8
-39 19 -16 49 2 50 29 0 11 4 22 10 23 12 4 14 -70 3 -94 -7 -15 -12 -16 -29
-5 -17 10 -22 9 -35 -7 -18 -26 -18 -52 1 -60 18 -6 19 -29 3 -55 -6 -10 -8
-26 -4 -36 6 -17 8 -17 25 -1 18 16 19 16 29 -14 6 -17 9 -37 6 -44 -8 -20
-41 -26 -54 -11 -11 14 -56 26 -65 17 -3 -3 0 -11 6 -19 9 -10 7 -18 -7 -34
-25 -28 -58 -21 -62 14 -3 25 -7 27 -40 26 -20 -1 -47 2 -59 6 -15 5 -23 3
-23 -4 0 -6 -7 -11 -15 -11 -8 0 -15 7 -15 15 0 30 -30 75 -50 75 -26 0 -26
26 1 40 32 18 5 43 -38 35 -29 -5 -33 -3 -33 15 0 15 -6 20 -25 20 -15 0 -25
6 -25 15 0 18 36 39 45 25 11 -17 44 -11 55 11 7 11 14 18 17 15 3 -3 0 -12
-6 -20 -15 -18 -6 -36 16 -36 12 0 14 7 10 29 -4 20 -2 31 8 35 8 3 15 12 15
21 0 12 -6 14 -25 9 -24 -6 -25 -4 -20 19 6 22 2 28 -25 42 -37 19 -38 50 0
50 22 0 60 -40 72 -77 3 -8 15 -7 41 1 47 16 56 31 29 49 -12 8 -22 23 -22 33
0 21 -15 32 -47 34 -32 1 -43 16 -46 61 -2 36 -4 39 -32 40 -16 1 -37 4 -46 8
-11 5 -22 0 -31 -13 l-15 -21 -21 23 c-14 15 -23 39 -25 66 -2 37 -5 41 -22
37 -11 -3 -23 -6 -27 -6 -5 0 -8 -13 -8 -29 0 -21 -6 -30 -23 -35 -32 -8 -44
-7 -28 3 8 5 -1 8 -27 7 -39 -1 -39 -1 -31 -31 12 -40 11 -85 0 -85 -14 0 -26
22 -26 45 0 28 -67 45 -92 23 -10 -8 -23 -14 -29 -11 -8 2 -11 -29 -10 -104 1
-97 3 -108 20 -111 10 -2 23 3 28 12 18 32 78 4 78 -36 0 -17 75 -36 88 -23 4
4 7 27 7 52 0 36 -5 49 -28 68 -26 23 -26 25 -8 35 11 5 31 10 46 10 29 0 87
38 79 52 -3 5 -31 6 -61 2 l-55 -7 4 29 c2 25 7 29 29 26 15 -1 32 4 39 13 7
8 17 15 23 15 18 0 54 -47 53 -71 -1 -31 33 -39 41 -10 7 29 37 26 51 -4 16
-35 5 -55 -30 -55 -26 0 -29 -3 -22 -22 4 -13 20 -39 36 -59 31 -39 32 -71 3
-83 -17 -6 -45 30 -45 59 0 21 -17 45 -32 45 -5 0 -13 -11 -18 -25 -13 -34
-26 -31 -34 6 -9 47 -7 56 9 35 14 -18 15 -18 25 8 12 32 13 49 3 44 -5 -2
-23 -12 -41 -23 -30 -18 -32 -23 -27 -54 4 -19 18 -44 36 -58 19 -16 29 -34
29 -52 0 -15 5 -32 12 -39 9 -9 7 -16 -8 -33 -17 -18 -26 -20 -74 -15 -86 11
-144 7 -156 -9 -6 -8 -17 -15 -25 -15 -15 0 -49 -53 -49 -76 0 -11 8 -14 33
-9 46 8 79 -20 64 -55 -6 -14 -11 -36 -11 -50 -1 -25 -24 -37 -52 -26 -12 4
-12 9 -2 25 14 23 -3 51 -33 51 -27 0 -33 -19 -13 -41 16 -17 16 -19 1 -19
-10 0 -17 -8 -17 -19 0 -17 5 -19 33 -14 29 4 35 1 57 -34 32 -49 61 -51 74
-5 9 32 7 44 -21 120 -3 6 0 12 7 12 12 0 76 64 91 92 5 10 19 18 30 18 23 0
36 -27 20 -43 -17 -17 -13 -27 9 -27 25 0 43 34 36 68 -5 21 0 31 20 46 32 23
52 9 34 -24 -6 -12 -9 -31 -6 -43 6 -25 -10 -57 -29 -57 -16 0 -20 -12 -9 -23
11 -11 64 33 64 53 0 25 10 50 20 50 5 0 8 -12 7 -27 -2 -26 1 -28 33 -28 33
0 35 -2 32 -33 -2 -26 2 -34 21 -41 20 -8 25 -18 30 -68 6 -60 -4 -86 -25 -65
-21 21 -29 13 -22 -23 7 -38 11 -37 -83 -39 -47 -1 -45 -20 3 -26 22 -3 53
-16 69 -28 37 -29 45 -28 45 8 0 18 6 33 15 36 8 4 15 14 15 23 0 10 11 23 25
29 18 8 23 16 18 29 -11 31 -14 34 -29 22 -25 -20 -17 19 9 47 19 20 32 25 63
22 39 -3 39 -3 42 -50 3 -51 25 -79 44 -60 21 21 28 13 28 -28 0 -29 -4 -40
-15 -40 -8 0 -15 5 -15 11 0 7 -14 8 -40 4 -39 -7 -40 -6 -40 21 l0 27 -25
-27 c-14 -15 -25 -31 -25 -36 0 -16 21 -22 35 -10 10 9 15 7 20 -9 6 -20 16
-25 42 -22 21 3 25 -20 12 -66 -12 -45 -12 -46 19 -72 41 -33 40 -41 -3 -39
-21 1 -43 -6 -55 -17 -19 -17 -20 -17 -29 9 -12 29 -19 31 -56 14 -35 -16 -27
-31 26 -44 46 -11 56 -26 45 -70 -5 -20 -11 -23 -31 -18 -22 5 -25 3 -25 -20
0 -15 7 -29 15 -32 8 -4 15 -14 15 -23 0 -14 2 -14 10 -1 5 8 10 27 10 43 0
22 4 27 25 27 23 0 25 4 25 45 0 44 1 45 31 45 30 0 30 -1 29 -42 -4 -86 -1
-100 20 -105 23 -6 23 -8 11 -32 -10 -19 3 -50 16 -38 4 4 7 54 8 110 l0 102
78 1 c45 0 82 5 89 12 25 25 70 0 52 -29 -3 -5 1 -9 9 -9 8 0 26 -9 41 -21
l26 -20 0 22 c0 12 -7 30 -15 39 -9 10 -13 25 -9 34 8 22 21 20 29 -4 6 -19
34 -27 48 -14 10 11 -24 54 -43 54 -13 0 -20 9 -22 27 -2 20 -9 29 -25 31 -28
4 -29 9 -3 30 25 22 13 42 -26 45 -26 2 -29 -1 -26 -26 2 -17 -3 -29 -13 -33
-8 -3 -15 -13 -15 -21 0 -11 8 -14 30 -11 40 6 63 -18 36 -37 -13 -10 -25 -11
-43 -4 -28 11 -31 9 -47 -23 -10 -20 -28 -24 -86 -19 -16 2 -12 47 5 61 11 9
13 16 6 23 -12 12 -41 -8 -41 -29 0 -10 -7 -7 -21 7 -15 15 -19 28 -15 47 11
46 11 55 1 59 -6 2 -19 -3 -29 -10 -16 -12 -17 -16 -5 -35 16 -25 1 -49 -25
-39 -20 8 -21 41 -1 57 11 9 12 17 4 31 -15 28 -3 39 42 39 42 0 48 9 24 34
-25 24 -33 57 -21 88 14 37 -2 55 -33 37 -16 -10 -23 -11 -32 -2 -18 18 9 46
38 40 13 -2 29 3 39 14 14 16 18 16 31 4 17 -18 39 -19 81 -4 19 6 37 7 49 1
22 -11 65 -1 71 17 3 8 0 11 -7 7 -12 -8 -71 23 -71 36 0 4 -9 8 -20 8 -11 0
-27 12 -37 28 -10 15 -23 32 -30 37 -18 14 -28 128 -11 123 7 -3 16 -23 21
-46 6 -32 13 -42 28 -42 10 0 19 5 19 12 0 15 -20 78 -32 102 -8 15 -4 24 16
45 23 23 28 24 41 10 16 -16 20 -49 9 -93 -7 -28 -6 -29 25 -23 26 5 31 3 31
-12 0 -23 -16 -37 -53 -46 -15 -4 -27 -13 -27 -21 0 -8 -4 -14 -10 -14 -5 0
-10 -9 -10 -20 0 -21 15 -27 25 -10 11 17 33 11 59 -17 l25 -26 29 31 c33 36
53 40 76 16 23 -22 20 -34 -8 -34 -30 0 -42 -15 -50 -62 -4 -22 -15 -42 -26
-48 -26 -14 -26 -50 -1 -50 11 0 23 -5 26 -10 9 -15 75 -13 75 3 0 23 -15 36
-30 27 -9 -5 -19 -5 -27 2 -20 16 -16 25 18 37 24 8 29 15 24 31 -11 33 3 62
27 54 13 -4 26 1 40 16 11 12 26 19 34 16 17 -6 18 8 3 36 -8 16 -8 24 4 35
13 14 18 11 41 -24 28 -42 65 -68 87 -61 8 3 -7 24 -41 57 -52 50 -54 54 -35
67 10 8 25 14 34 14 8 0 22 7 32 16 23 21 46 12 61 -23 15 -34 26 -43 54 -43
30 0 84 29 84 45 0 19 17 27 40 20 27 -9 25 -22 -6 -38 -23 -12 -24 -14 -9
-27 15 -13 20 -12 36 9 10 12 23 20 28 17 5 -4 16 3 25 15 17 24 6 59 -18 59
-18 0 -48 78 -34 86 7 5 4 12 -7 21 -15 10 -16 16 -6 26 10 9 14 9 22 -5 7
-13 13 -14 34 -5 31 15 26 33 -9 29 -18 -2 -26 2 -26 13 0 8 -6 24 -12 36 -11
17 -10 22 11 38 29 22 22 51 -13 51 -15 0 -25 7 -29 20 -8 32 -27 23 -27 -13
0 -20 -8 -39 -20 -50 -19 -16 -26 -54 -22 -119 2 -24 -2 -28 -23 -28 -21 0
-25 4 -24 28 2 32 -16 82 -30 82 -19 0 -22 -20 -7 -36 21 -21 20 -31 -5 -45
-32 -17 -44 1 -33 53 8 37 13 43 34 43 20 0 26 6 28 28 3 27 16 35 27 17 3 -5
15 -10 27 -10 17 0 19 4 13 23 -4 12 -8 37 -8 56 -2 38 -22 53 -31 24 -4 -14
-17 -19 -46 -19 -49 -2 -58 -9 -42 -35 16 -25 0 -59 -27 -59 -17 0 -19 -8 -16
-94 1 -51 5 -99 9 -105 13 -21 -23 -23 -50 -2 -24 19 -27 19 -50 4 -26 -17
-27 -38 -3 -38 9 0 13 -10 12 -29 -3 -37 -10 -43 -33 -28 -34 21 -40 14 -40
-43 0 -48 -2 -55 -20 -55 -11 0 -20 5 -20 10 0 6 -11 15 -24 20 -26 10 -26 39
0 61 8 6 14 19 14 29 0 19 -30 50 -48 50 -16 0 -15 -33 0 -48 20 -20 0 -25
-34 -9 -44 21 -65 82 -46 133 9 26 9 37 0 46 -8 8 -14 5 -23 -15 -12 -26 -39
-38 -39 -17 0 6 -4 10 -10 10 -5 0 -10 -7 -10 -16 0 -8 -5 -12 -10 -9 -6 4 -8
21 -4 40 6 34 6 34 -37 37 -53 4 -58 17 -16 43 17 11 33 29 35 40 2 11 11 28
19 37 13 14 13 20 3 33 -20 24 -40 18 -46 -15 -8 -37 -21 -38 -36 -5 -9 19 -8
31 2 49 7 15 10 38 7 55 -5 24 -2 33 13 41 13 7 20 21 20 40 0 28 -2 29 -31
23 -26 -5 -30 -3 -29 13 4 31 1 44 -10 44 -6 0 -10 -15 -9 -32 2 -18 2 -48 1
-66 -2 -31 -4 -33 -34 -30 -30 3 -32 5 -34 52 -4 64 -9 76 -33 76 -17 0 -18
-6 -14 -62z m43 -93 c0 -8 -4 -15 -9 -15 -13 0 -22 16 -14 24 11 11 23 6 23
-9z m83 -35 c5 -4 7 -16 5 -26 -2 -15 -14 -20 -51 -22 -41 -3 -47 -1 -47 17 0
43 59 62 93 31z m647 -85 c0 -8 -4 -15 -9 -15 -13 0 -22 16 -14 24 11 11 23 6
23 -9z m-1380 -31 c7 -19 7 -31 -1 -40 -19 -23 -49 -16 -60 13 -13 36 -5 53
26 53 18 0 28 -7 35 -26z m1505 -94 c0 -18 -5 -25 -19 -23 -13 1 -15 -2 -7
-10 15 -15 14 -37 -3 -37 -12 0 -14 25 -7 88 2 25 36 8 36 -18z m-1565 5 c0
-8 -9 -15 -20 -15 -20 0 -26 11 -13 23 12 13 33 7 33 -8z m110 -5 c0 -5 10
-18 22 -30 18 -16 20 -22 9 -33 -11 -9 -14 -9 -18 1 -6 16 -29 39 -45 45 -10
4 -9 8 2 16 19 13 30 14 30 1z m1334 -126 c7 -19 33 -18 44 1 6 12 17 14 46 8
l37 -8 -25 -38 c-14 -21 -26 -42 -26 -47 0 -11 -59 -24 -68 -15 -3 3 -1 15 6
25 19 31 15 35 -38 36 -67 1 -81 15 -39 42 34 21 54 20 63 -4z m-138 -59 c-3
-9 -11 -13 -16 -10 -8 5 -7 11 1 21 14 18 24 11 15 -11z m119 -15 c3 -5 -3
-10 -14 -10 -12 0 -21 5 -21 10 0 6 6 10 14 10 8 0 18 -4 21 -10z m-1331 -66
c16 -10 26 -12 31 -5 8 13 45 14 45 2 0 -14 -44 -80 -52 -81 -5 0 -8 14 -8 30
0 27 -3 30 -30 30 -23 0 -30 4 -30 20 0 24 13 25 44 4z m945 -8 c20 -23 -4
-56 -39 -56 -24 0 -28 3 -23 18 7 21 33 52 43 52 4 0 13 -6 19 -14z m-133
-133 c-10 -10 -19 5 -10 18 6 11 8 11 12 0 2 -7 1 -15 -2 -18z m-271 -3 c3 -5
-1 -10 -10 -10 -9 0 -13 5 -10 10 3 6 8 10 10 10 2 0 7 -4 10 -10z"/>
<path d="M2480 1676 c0 -8 5 -18 10 -21 6 -3 10 3 10 14 0 12 -4 21 -10 21 -5
0 -10 -6 -10 -14z"/>
<path d="M645 1660 c-4 -6 1 -22 10 -37 21 -31 41 -17 31 21 -6 26 -29 35 -41
16z"/>
<path d="M1030 1654 c-9 -10 -10 -18 -2 -26 12 -12 32 -2 32 17 0 21 -16 26
-30 9z"/>
<path d="M1545 1634 c-16 -16 -15 -18 12 -40 30 -24 28 -27 -35 -38 -35 -6
-55 15 -34 36 16 16 -4 38 -34 38 -21 0 -23 -4 -22 -44 0 -24 -2 -48 -6 -54
-3 -5 6 -18 21 -27 24 -16 27 -16 38 -1 7 8 15 13 19 9 4 -4 25 -8 48 -8 32
-1 42 3 46 17 2 10 11 18 18 18 20 0 17 23 -6 43 -11 9 -20 23 -20 31 0 7 -6
19 -14 25 -11 9 -18 8 -31 -5z"/>
<path d="M953 1603 c-7 -2 -13 -13 -13 -24 0 -11 -5 -28 -12 -39 -7 -10 -9
-23 -4 -27 4 -4 12 0 17 10 6 9 16 17 24 17 19 0 37 34 29 54 -6 16 -18 19
-41 9z"/>
<path d="M1266 1584 c-3 -9 -6 -32 -5 -52 0 -42 33 -75 84 -86 35 -7 46 -1 63
37 l12 29 -47 -4 c-46 -3 -47 -2 -56 32 -14 55 -39 76 -51 44z"/>
<path d="M170 1568 c-22 -20 -22 -23 -7 -26 28 -6 47 6 47 28 0 26 -10 25 -40
-2z"/>
<path d="M1054 1516 c-19 -15 -19 -15 1 -30 17 -14 18 -17 5 -26 -8 -5 -26
-10 -39 -10 -19 0 -22 -4 -18 -20 4 -14 -1 -25 -14 -33 -18 -11 -27 -39 -11
-35 24 6 74 -16 82 -38 13 -33 30 -30 30 6 0 19 -7 33 -20 40 -11 6 -20 20
-20 32 0 16 5 19 26 15 28 -5 44 17 26 35 -6 6 -8 26 -5 44 6 38 -9 45 -43 20z"/>
<path d="M985 1510 c-8 -13 20 -24 36 -15 8 6 7 10 -2 16 -18 11 -26 11 -34
-1z"/>
<path d="M2427 1454 c-4 -4 -7 -22 -7 -40 0 -23 -6 -37 -20 -44 -24 -13 -26
-28 -4 -37 9 -3 21 3 30 16 18 25 31 26 56 4 17 -15 18 -15 18 3 0 11 -6 26
-12 33 -10 11 -10 14 0 18 20 8 15 43 -7 43 -11 0 -26 2 -33 5 -8 3 -17 2 -21
-1z"/>
<path d="M1795 1389 c-8 -12 -72 -39 -95 -39 -24 0 -34 -30 -16 -48 13 -13 17
-11 39 12 30 32 42 33 63 1 9 -14 25 -25 35 -25 23 0 24 7 4 26 -11 11 -12 20
-5 34 6 10 10 23 10 28 0 14 -28 23 -35 11z"/>
<path d="M960 1315 c0 -20 4 -26 18 -23 9 2 17 12 17 23 0 11 -8 21 -17 23
-14 3 -18 -3 -18 -23z"/>
<path d="M2393 1277 c-31 -16 -37 -46 -10 -56 26 -10 37 -5 37 16 0 15 9 15
60 2 10 -3 15 4 15 21 0 22 -4 25 -40 27 -22 0 -50 -4 -62 -10z"/>
<path d="M1752 1263 c-7 -12 -5 -25 6 -42 16 -24 16 -25 0 -13 -21 17 -33 10
-53 -29 -22 -42 -10 -54 32 -29 19 11 38 18 43 15 4 -2 19 4 33 15 22 17 26
18 37 5 10 -12 8 -18 -11 -34 -15 -12 -24 -30 -24 -48 0 -21 -5 -28 -20 -28
-30 0 -35 -13 -35 -92 l0 -73 -56 0 c-52 0 -55 -1 -52 -22 2 -19 9 -23 43 -24
66 -1 65 -1 65 -53 0 -49 16 -76 37 -63 7 4 12 23 12 42 1 19 3 62 5 95 3 41
0 67 -10 82 -28 45 -6 60 35 22 23 -22 121 -38 121 -20 0 5 3 16 6 24 4 11 -2
16 -18 19 -18 2 -23 9 -23 33 0 28 -2 30 -32 27 -34 -3 -52 13 -34 31 6 6 11
21 11 34 0 13 7 26 15 29 22 9 18 26 -10 53 -15 14 -31 21 -41 17 -10 -4 -23
3 -36 19 -23 29 -34 31 -46 8z m108 -232 c0 -5 9 -7 20 -4 22 6 25 -3 10 -27
-7 -12 -12 -12 -29 4 -23 20 -27 36 -11 36 6 0 10 -4 10 -9z m-60 -156 c0 -14
-4 -25 -10 -25 -5 0 -10 11 -10 25 0 14 5 25 10 25 6 0 10 -11 10 -25z"/>
<path d="M1910 1264 c0 -21 23 -40 52 -42 l33 -2 -30 25 c-28 23 -55 33 -55
19z"/>
<path d="M2037 1240 c-6 -23 29 -39 47 -20 8 8 6 15 -8 26 -26 19 -33 18 -39
-6z"/>
<path d="M2100 1184 c-29 -28 -32 -29 -70 -9 -22 12 -35 12 -60 3 l-33 -11 23
-17 c18 -14 20 -20 12 -37 -9 -16 -6 -26 18 -54 27 -33 44 -34 46 -1 1 10 2
30 3 46 1 21 5 27 16 22 22 -8 65 11 65 28 0 9 9 20 20 26 11 6 20 15 20 20 0
18 -35 9 -60 -16z"/>
<path d="M566 1191 c-13 -20 -16 -186 -5 -213 11 -28 32 -37 44 -19 6 11 112
3 138 -11 11 -6 17 -5 17 3 0 6 -8 13 -18 16 -18 4 -48 81 -36 92 4 3 9 0 11
-6 3 -7 13 -23 23 -35 24 -29 49 -13 31 20 -17 32 -13 66 9 85 21 18 27 52 10
62 -5 3 -15 -3 -22 -15 -16 -25 -34 -26 -48 0 -6 11 -17 20 -25 20 -24 0 -17
-39 10 -64 20 -19 23 -26 12 -34 -10 -9 -17 -8 -25 0 -19 19 -33 -4 -35 -56
-2 -40 -5 -46 -24 -46 -28 0 -37 29 -37 129 -1 47 -5 76 -13 78 -6 2 -14 0
-17 -6z"/>
<path d="M2419 1177 c-15 -20 -18 -21 -44 -7 -25 13 -28 13 -45 -10 -10 -13
-21 -37 -24 -53 -3 -16 -10 -26 -16 -22 -13 8 -49 -34 -50 -58 0 -29 64 -20
68 9 2 17 12 24 40 29 59 10 72 15 72 30 0 8 -6 12 -12 10 -21 -8 -42 11 -34
30 6 17 8 17 27 -1 21 -19 21 -18 45 9 13 16 24 35 24 43 0 21 -33 16 -51 -9z
m-69 -82 c0 -8 -4 -15 -10 -15 -5 0 -10 7 -10 15 0 8 5 15 10 15 6 0 10 -7 10
-15z"/>
<path d="M50 1171 c-8 -15 -8 -27 0 -41 20 -37 55 -21 55 25 0 23 -5 31 -22
33 -14 2 -26 -4 -33 -17z"/>
<path d="M253 1164 c-7 -20 8 -48 29 -52 16 -3 26 22 20 51 -4 22 -41 22 -49
1z"/>
<path d="M2175 1160 c-9 -14 3 -30 33 -41 31 -12 47 1 37 30 -4 15 -15 21 -35
21 -16 0 -32 -4 -35 -10z"/>
<path d="M630 1143 c0 -25 15 -38 25 -22 4 6 0 18 -9 27 -15 15 -16 15 -16 -5z"/>
<path d="M197 1133 c-13 -13 -20 -14 -29 -5 -16 16 -51 16 -46 0 7 -20 72 -22
88 -3 18 22 8 28 -13 8z"/>
<path d="M1765 1120 c-3 -5 -3 -15 1 -21 6 -11 23 6 24 24 0 10 -18 9 -25 -3z"/>
<path d="M2480 1101 c0 -24 -9 -36 -46 -60 -25 -17 -56 -31 -70 -31 -19 0 -24
-5 -24 -25 0 -14 5 -25 10 -25 6 0 10 -10 10 -23 0 -13 5 -28 12 -35 17 -17
-3 -35 -32 -30 -19 2 -31 14 -47 46 -1 2 -11 -2 -23 -8 -21 -11 -22 -10 -17
12 7 28 -16 68 -39 68 -9 0 -14 11 -14 30 0 27 -3 30 -30 30 -28 0 -30 -2 -30
-40 0 -31 5 -43 26 -56 14 -9 23 -23 20 -30 -3 -8 2 -18 11 -22 10 -6 14 -17
11 -30 -9 -32 7 -50 32 -34 25 15 112 16 127 1 9 -9 8 -18 0 -38 -18 -40 -28
-42 -58 -10 -31 33 -62 30 -57 -5 2 -15 9 -20 26 -19 33 4 27 -14 -10 -31 -30
-14 -65 -20 -95 -17 -26 2 -13 31 13 31 21 0 25 4 22 23 -2 14 -11 23 -26 25
-27 4 -45 42 -36 78 6 21 3 24 -24 24 -17 0 -33 -6 -36 -12 -5 -10 -7 -10 -12
0 -8 17 -39 15 -54 -3 -10 -13 -10 -19 5 -34 19 -22 14 -50 -15 -76 -26 -23
-55 -13 -39 13 18 29 4 55 -26 48 -14 -4 -25 -2 -25 4 0 5 9 10 20 10 11 0 23
6 26 14 3 8 12 12 20 9 17 -6 19 8 3 24 -14 14 5 44 43 66 36 21 48 21 48 2 0
-8 5 -15 10 -15 6 0 10 6 10 13 0 38 -66 50 -97 19 -10 -11 -26 -22 -35 -25
-10 -4 -18 -13 -18 -21 0 -7 -7 -16 -15 -20 -8 -3 -15 -13 -15 -23 -1 -13 -6
-9 -18 12 -16 29 -17 30 -20 6 -2 -13 1 -28 7 -34 18 -18 12 -27 -19 -27 -23
0 -30 -4 -30 -20 0 -24 35 -44 63 -36 26 6 51 -12 38 -28 -5 -6 -11 -33 -13
-59 -3 -44 -1 -49 31 -69 l34 -22 -6 30 c-3 16 -9 41 -13 57 -6 24 -4 27 19
27 13 0 30 7 37 15 7 8 19 15 26 15 8 0 14 7 14 15 0 17 38 35 58 28 24 -10
13 -44 -20 -58 -51 -21 -76 -49 -71 -79 4 -18 -2 -31 -20 -48 -27 -25 -32 -73
-7 -73 8 0 14 8 14 18 -1 9 4 17 11 17 7 0 15 7 19 15 3 8 15 15 26 15 24 0
38 26 21 43 -26 26 -4 70 24 47 8 -7 24 -10 36 -7 29 8 49 -2 49 -23 0 -42 62
-54 68 -13 2 12 10 27 18 33 8 7 14 20 14 30 0 10 7 20 15 24 21 8 65 -11 65
-28 0 -23 -47 -73 -75 -80 -31 -8 -31 -17 1 -72 14 -24 23 -44 20 -45 -3 0
-24 -1 -46 -1 -22 0 -44 1 -50 1 -14 1 -13 44 2 59 6 6 9 15 5 19 -4 4 -13 1
-19 -5 -15 -15 -63 -15 -90 -1 -17 9 -24 8 -33 -5 -7 -9 -17 -16 -22 -16 -6 0
-17 -7 -24 -16 -11 -14 -11 -18 4 -29 23 -17 22 -35 -3 -35 -25 0 -28 -45 -4
-54 23 -9 22 -9 38 29 16 37 70 77 92 68 7 -3 16 -15 20 -26 11 -33 36 -48 54
-32 23 20 60 2 60 -29 0 -18 -9 -30 -31 -41 -28 -15 -32 -15 -49 0 -16 14 -20
13 -50 -15 -32 -30 -60 -34 -60 -9 0 8 -6 7 -17 -3 -10 -8 -26 -18 -36 -21 -9
-4 -21 -17 -26 -29 -15 -39 -66 -81 -89 -74 -11 4 -23 2 -27 -4 -3 -5 -13 -10
-21 -10 -16 0 -19 36 -4 45 17 11 11 25 -15 35 -28 11 -31 20 -13 38 17 17 38
15 38 -4 0 -22 24 -12 28 12 2 15 -8 26 -33 40 -36 19 -37 19 -51 -1 -9 -11
-13 -31 -10 -45 3 -14 7 -71 10 -128 3 -56 10 -111 16 -121 7 -14 6 -22 -5
-31 -16 -13 -19 -38 -9 -64 7 -19 30 -21 37 -3 4 9 6 9 6 0 1 -8 15 -13 37
-13 20 0 33 4 29 10 -3 5 -1 19 5 30 16 30 -4 50 -44 47 -25 -2 -30 2 -28 15
2 10 -2 27 -8 39 -11 20 1 50 18 47 4 -1 15 2 26 7 20 9 36 -8 36 -38 0 -10
16 -34 36 -54 l36 -36 -7 34 c-4 19 -13 41 -21 50 -20 23 7 47 47 41 25 -4 30
-8 25 -25 -3 -11 -1 -28 4 -38 7 -12 5 -21 -5 -29 -8 -7 -15 -25 -15 -41 0
-22 5 -29 20 -29 14 0 22 11 31 42 9 35 7 134 -3 143 -2 1 -13 7 -24 13 -23
12 -30 62 -11 74 16 10 47 -10 47 -31 0 -10 17 -27 40 -40 44 -25 51 -40 19
-48 -16 -5 -19 -11 -15 -30 4 -13 2 -32 -4 -43 -7 -13 -7 -21 0 -25 15 -9 2
-25 -21 -25 -15 0 -20 -6 -17 -23 4 -27 36 -27 73 0 30 22 32 37 5 30 -21 -5
-28 7 -10 18 6 3 10 21 10 39 0 20 8 40 19 50 23 21 34 8 25 -28 -8 -32 20
-47 43 -23 13 13 14 21 5 44 -6 15 -13 40 -16 54 l-6 27 65 -6 c45 -3 65 -1
65 7 0 6 -4 11 -10 11 -5 0 -10 7 -10 15 0 16 28 20 45 7 6 -4 10 -14 10 -22
0 -8 10 -16 23 -18 18 -3 22 1 22 21 0 14 -7 27 -15 31 -8 3 -15 12 -15 21 0
8 7 15 15 15 12 0 15 14 15 68 -1 58 -2 65 -14 50 -7 -10 -25 -18 -40 -18 -33
0 -34 -17 -1 -32 32 -14 35 -58 5 -58 -30 0 -69 28 -86 62 -16 30 -12 93 7
129 4 9 4 20 -2 26 -5 5 -6 24 -3 41 8 40 47 55 68 26 12 -16 18 -16 40 -6 20
9 26 19 26 43 0 30 -1 31 -17 17 -23 -19 -51 -29 -56 -20 -2 4 -7 21 -11 37
-4 21 -4 25 3 16 15 -24 81 26 81 61 0 21 -4 26 -16 21 -8 -3 -20 -16 -25 -29
-11 -31 -59 -34 -59 -5 0 11 5 23 11 27 6 3 9 19 7 35 -4 28 -3 29 39 29 36 0
43 3 43 19 0 10 -7 22 -16 25 -13 5 -15 15 -11 41 3 19 2 35 -4 35 -5 0 -9 -6
-9 -12 -1 -18 -48 -74 -55 -66 -4 3 -1 16 5 28 9 17 8 26 -5 47 -22 33 -7 52
30 35 21 -10 27 -9 31 3 4 8 12 15 20 15 10 0 14 15 14 55 0 30 -4 55 -10 55
-5 0 -10 -13 -10 -29z m-224 -736 c16 -8 48 -15 70 -15 44 0 70 -19 60 -45 -7
-20 -60 -20 -76 0 -16 19 -31 19 -56 1 -15 -12 -17 -17 -6 -27 21 -22 14 -39
-18 -39 -16 0 -30 5 -30 10 0 6 -7 10 -15 10 -22 0 -18 28 6 40 13 7 19 19 17
33 -2 19 7 47 16 47 2 0 17 -7 32 -15z m-206 -135 c0 -5 -7 -10 -15 -10 -8 0
-15 5 -15 10 0 6 7 10 15 10 8 0 15 -4 15 -10z m-147 -185 c-7 -21 -13 -19
-13 6 0 11 4 18 10 14 5 -3 7 -12 3 -20z m39 -20 c0 -5 -5 -11 -11 -13 -6 -2
-11 4 -11 13 0 9 5 15 11 13 6 -2 11 -8 11 -13z"/>
<path d="M2130 1101 c0 -15 6 -21 21 -21 25 0 22 33 -4 38 -12 2 -17 -3 -17
-17z"/>
<path d="M0 1090 c0 -5 5 -10 10 -10 6 0 10 -7 10 -15 0 -8 -4 -15 -10 -15 -5
0 -10 -11 -10 -25 0 -30 22 -25 38 10 9 19 7 27 -7 44 -20 23 -31 27 -31 11z"/>
<path d="M1390 1015 c0 -7 9 -20 20 -30 11 -10 20 -31 20 -48 0 -21 4 -28 14
-24 7 3 23 -1 34 -8 27 -20 126 -9 118 12 -4 8 -6 26 -6 39 0 32 -28 32 -55
-2 l-20 -26 -27 21 c-14 11 -28 31 -32 45 -4 17 -14 25 -36 28 -19 3 -30 0
-30 -7z"/>
<path d="M1652 993 l-24 -17 49 -12 c57 -15 74 -5 42 25 -27 25 -36 25 -67 4z"/>
<path d="M216 898 c-13 -19 -14 -25 -2 -43 7 -11 25 -21 40 -23 30 -4 36 -22
7 -22 -24 0 -38 -18 -43 -55 -2 -20 -11 -34 -28 -42 -23 -11 -25 -18 -26 -82
0 -56 2 -68 12 -60 9 7 19 7 34 -1 16 -8 30 -8 56 0 36 12 64 8 64 -9 0 -5
-10 -13 -22 -17 -30 -9 -40 -25 -26 -42 9 -10 7 -17 -5 -29 -15 -15 -17 -14
-26 9 -9 25 -38 44 -50 33 -3 -4 2 -20 12 -36 15 -28 15 -33 2 -60 -25 -48
-50 -38 -45 19 2 24 -21 30 -38 10 -23 -29 -23 -59 -2 -103 25 -51 42 -59 34
-15 -5 22 -2 31 10 36 22 8 46 -13 46 -42 0 -29 6 -32 53 -27 45 6 47 18 7 41
-23 13 -30 23 -28 42 4 34 51 36 56 3 2 -13 7 -23 12 -23 5 0 7 30 5 67 -4 79
9 113 42 113 16 0 23 6 23 20 0 24 26 26 51 4 17 -16 49 -13 49 3 0 4 -11 21
-24 37 -23 30 -24 30 -117 28 -52 -2 -101 -5 -110 -8 -22 -6 -45 22 -32 39 6
6 13 25 17 40 4 15 17 33 30 38 20 9 27 8 46 -11 12 -12 20 -22 18 -23 -48
-24 -58 -50 -22 -55 18 -3 22 4 28 40 6 34 4 45 -10 55 -15 11 -15 15 -3 30 8
10 21 23 29 29 21 17 -5 46 -39 42 -23 -3 -26 1 -29 35 -3 28 -7 37 -22 37
-10 0 -26 -10 -34 -22z m54 -298 c0 -5 -16 -10 -36 -10 -21 0 -33 4 -29 10 3
6 19 10 36 10 16 0 29 -4 29 -10z m150 0 c0 -5 -9 -10 -19 -10 -11 0 -23 5
-26 10 -4 6 5 10 19 10 14 0 26 -4 26 -10z"/>
<path d="M1270 909 c0 -6 -16 -17 -36 -25 -25 -11 -34 -20 -30 -32 14 -53 16
-95 5 -108 -9 -11 -8 -18 6 -33 12 -14 14 -25 8 -36 -8 -14 -11 -12 -21 10
-14 31 -26 32 -40 1 -6 -14 -21 -26 -34 -28 -32 -4 -32 -47 0 -59 20 -8 23 -5
29 21 7 38 40 41 49 5 4 -17 13 -25 29 -25 20 0 22 5 22 55 0 30 -4 55 -10 55
-6 0 -5 5 1 13 6 7 8 23 5 36 -5 22 -4 23 26 16 25 -5 31 -3 31 10 0 10 -5 13
-12 9 -7 -4 -8 -3 -4 4 4 7 22 9 49 6 23 -4 60 -6 81 -5 22 0 50 -6 63 -14 31
-21 50 -19 56 5 6 24 42 27 55 4 7 -12 17 -15 40 -9 40 8 48 22 28 44 -18 19
-121 28 -131 11 -11 -18 -47 -11 -52 9 -7 29 -35 35 -53 13 -12 -15 -27 -18
-72 -17 -62 1 -78 9 -60 27 18 18 14 35 -8 41 -11 3 -20 1 -20 -4z m8 -82 c2
-11 -3 -17 -17 -17 -25 0 -38 19 -20 31 19 12 33 6 37 -14z"/>
<path d="M1383 903 c-18 -6 -16 -23 1 -23 17 0 30 16 19 23 -5 2 -14 2 -20 0z"/>
<path d="M386 846 c-23 -36 -11 -56 34 -56 21 0 45 -3 54 -6 22 -8 40 40 25
67 -14 26 -44 20 -43 -9 1 -30 -22 -28 -30 3 -8 32 -19 32 -40 1z"/>
<path d="M870 791 c-13 -25 -13 -51 0 -51 6 0 10 -11 10 -25 0 -28 31 -50 48
-33 19 19 82 0 92 -28 14 -35 46 -28 43 8 -1 21 3 28 20 30 29 4 36 38 8 38
-11 0 -22 4 -26 9 -3 6 -20 4 -42 -5 -45 -19 -62 -7 -45 31 14 31 8 45 -19 45
-21 0 -27 -34 -8 -46 8 -4 7 -9 -2 -15 -22 -14 -29 -11 -29 14 0 23 -16 47
-32 47 -4 0 -12 -9 -18 -19z"/>
<path d="M390 760 c-13 -8 -13 -11 2 -26 20 -20 51 -11 46 13 -4 21 -27 27
-48 13z"/>
<path d="M1317 740 c4 -14 -1 -21 -22 -26 -24 -6 -25 -8 -11 -22 12 -13 20
-13 41 -4 21 10 30 9 48 -3 31 -22 55 -19 59 8 2 16 10 22 28 22 22 0 25 -4
22 -32 -2 -24 1 -33 12 -33 9 0 23 -11 32 -25 18 -27 49 -33 57 -11 9 23 -4
55 -24 61 -29 10 -23 27 9 23 23 -3 27 1 27 22 0 23 -3 25 -40 22 -22 -1 -63
-2 -92 -2 -28 1 -54 -4 -58 -10 -12 -19 -33 -11 -28 10 5 17 0 20 -30 20 -30
0 -34 -3 -30 -20z"/>
<path d="M51 729 c-27 -29 -26 -37 4 -51 21 -9 29 -9 42 4 14 15 14 19 -5 43
l-20 26 -21 -22z"/>
<path d="M832 737 c-9 -11 -10 -17 -2 -22 15 -9 23 -1 18 21 -3 15 -4 16 -16
1z"/>
<path d="M1830 731 c0 -19 43 -61 62 -61 12 0 1 49 -14 67 -16 20 -48 16 -48
-6z"/>
<path d="M1630 738 c0 -3 7 -19 16 -36 19 -40 15 -63 -14 -78 -27 -13 -29 -29
-4 -30 38 -2 42 -5 42 -29 0 -18 9 -28 35 -41 19 -9 35 -21 35 -27 0 -6 7 -18
16 -28 14 -15 13 -21 -7 -64 -12 -26 -31 -50 -41 -53 -19 -5 -21 -16 -10 -44
6 -15 10 -14 35 7 15 14 31 35 36 47 8 21 10 21 16 5 5 -11 1 -25 -9 -36 -16
-18 -13 -49 5 -52 32 -6 34 -2 35 61 2 52 -2 69 -18 87 -21 22 -17 43 6 43 8
0 19 -7 26 -15 15 -19 40 -20 40 -2 0 7 -11 23 -25 35 -28 24 -29 30 -15 52 9
13 13 11 28 -9 15 -19 24 -22 50 -17 34 8 45 25 30 47 -7 11 -11 11 -15 2 -7
-18 -53 -16 -53 2 0 8 11 31 25 51 14 20 23 40 19 43 -3 3 -10 -2 -15 -11 -13
-23 -48 -11 -55 18 -7 28 -12 29 -42 8 -21 -15 -25 -15 -42 1 -12 11 -26 14
-39 10 -16 -5 -24 0 -33 19 -6 14 -15 26 -19 26 -4 0 -14 3 -23 6 -9 3 -16 4
-16 2z m106 -92 c11 -8 36 -16 54 -18 47 -4 49 -28 8 -78 -41 -49 -60 -52 -51
-9 5 29 4 31 -16 24 -19 -6 -22 -3 -19 13 2 10 -3 26 -11 35 -13 17 -9 47 6
47 5 0 18 -6 29 -14z"/>
<path d="M888 639 c-24 -13 -23 -39 0 -39 30 0 55 -35 48 -65 -4 -14 -4 -36 0
-50 l6 -25 22 23 c17 18 21 34 20 82 -1 53 -3 60 -20 58 -10 -1 -23 5 -27 13
-9 16 -25 17 -49 3z"/>
<path d="M67 633 c-2 -5 -7 -20 -11 -35 -3 -16 -11 -28 -16 -28 -6 0 -16 12
-22 28 l-12 27 -4 -34 c-2 -19 1 -37 6 -40 5 -3 12 -19 16 -34 8 -33 28 -31
36 4 4 14 14 25 27 27 15 2 22 12 26 35 2 18 2 38 0 45 -6 13 -39 17 -46 5z"/>
<path d="M608 629 c-28 -16 -21 -89 8 -89 8 0 23 -6 34 -12 37 -23 43 3 15 60
-28 55 -30 57 -57 41z"/>
<path d="M1315 620 c-4 -13 -15 -20 -31 -20 -13 0 -24 -5 -24 -10 0 -12 -13
-29 -53 -69 -25 -24 -27 -29 -13 -40 20 -17 54 -5 58 21 4 26 23 34 31 13 4
-8 -3 -23 -15 -35 -18 -17 -20 -25 -12 -48 7 -20 16 -27 34 -26 14 1 29 -5 35
-13 8 -11 17 -11 45 -2 19 7 41 13 48 15 17 5 15 69 -3 84 -19 16 -31 7 -38
-29 -4 -20 -13 -30 -31 -33 -29 -6 -31 1 -14 48 9 25 19 35 42 40 46 9 76 31
69 50 -4 11 2 23 18 35 33 25 14 46 -25 28 -21 -10 -34 -10 -60 -1 -45 16 -54
15 -61 -8z m95 -24 c0 -3 -4 -8 -10 -11 -5 -3 -10 -1 -10 4 0 6 5 11 10 11 6
0 10 -2 10 -4z m-36 -21 c7 -18 -42 -65 -60 -58 -12 4 -7 35 12 64 9 15 41 10
48 -6z"/>
<path d="M1149 566 c-9 -20 -10 -29 -1 -38 8 -8 14 -4 23 16 9 20 10 29 1 38
-8 8 -14 4 -23 -16z"/>
<path d="M1493 567 c-17 -9 -20 -17 -16 -43 3 -18 0 -34 -6 -38 -17 -11 -13
-41 8 -60 23 -21 37 -5 19 23 -15 24 3 71 27 71 8 0 15 3 15 8 0 4 3 17 6 30
5 17 2 22 -12 21 -11 -1 -29 -6 -41 -12z"/>
<path d="M2427 562 c-9 -10 -14 -27 -11 -39 4 -16 0 -23 -16 -28 -24 -8 -24
-38 1 -43 11 -2 27 14 45 42 16 25 35 43 42 41 7 -3 12 5 12 20 0 21 -5 25
-28 25 -16 0 -36 -8 -45 -18z"/>
<path d="M128 543 c-21 -5 -32 -33 -18 -47 8 -8 15 -6 26 8 10 14 14 16 14 5
1 -10 3 -9 11 4 5 9 7 22 4 27 -6 10 -9 11 -37 3z"/>
<path d="M1576 531 c-4 -5 -2 -12 3 -15 5 -4 12 -2 15 3 4 5 2 12 -3 15 -5 4
-12 2 -15 -3z"/>
<path d="M492 518 c-7 -7 -8 -17 -1 -29 14 -28 0 -99 -20 -99 -29 0 -39 19
-34 64 7 56 -11 69 -43 30 -30 -37 -29 -52 5 -92 38 -44 81 -68 93 -50 4 7 8
19 8 26 0 19 15 15 48 -13 17 -14 35 -25 41 -25 21 0 11 32 -18 59 -26 24 -29
33 -24 69 8 58 -23 92 -55 60z"/>
<path d="M1937 484 c-22 -30 -16 -57 10 -47 24 8 43 33 43 55 0 26 -32 22 -53
-8z"/>
<path d="M1587 472 c-45 -3 -47 -5 -45 -29 2 -21 -2 -28 -22 -33 -19 -4 -26
-14 -31 -40 -3 -19 -8 -41 -10 -49 -9 -30 20 -19 46 19 15 22 29 40 31 40 1 0
9 -3 18 -6 24 -9 19 -23 -10 -34 -23 -9 -25 -13 -19 -54 7 -47 -5 -67 -30 -46
-8 7 -25 10 -37 6 -13 -3 -40 -3 -62 1 l-38 6 29 23 c24 19 29 29 25 53 -3 22
-10 31 -23 31 -16 0 -18 -5 -13 -25 4 -18 1 -27 -11 -31 -20 -8 -37 14 -29 39
6 20 -6 23 -24 5 -17 -17 -15 -36 9 -66 l20 -26 -32 -16 c-18 -8 -34 -20 -36
-26 -4 -12 27 -24 65 -24 21 0 23 -4 22 -37 -3 -57 -2 -61 18 -68 21 -6 86 18
75 28 -3 4 -17 7 -31 7 -21 0 -23 3 -17 23 3 12 8 33 10 46 5 32 26 44 44 26
13 -12 12 -17 -2 -33 -23 -26 -21 -42 6 -42 38 0 54 16 40 39 -7 11 -9 23 -4
26 15 9 41 -6 41 -24 1 -29 27 -53 49 -46 36 11 18 55 -21 55 -15 0 -17 3 -8
20 5 10 9 34 8 52 -3 29 0 33 24 36 48 6 46 62 -4 88 -51 27 -19 66 34 42 9
-4 18 -18 20 -30 5 -32 21 -32 41 1 33 57 -6 82 -116 73z m103 -42 c0 -5 -5
-10 -11 -10 -5 0 -7 5 -4 10 3 6 8 10 11 10 2 0 4 -4 4 -10z m-290 -220 c0 -5
-4 -10 -10 -10 -5 0 -10 5 -10 10 0 6 5 10 10 10 6 0 10 -4 10 -10z"/>
<path d="M2145 466 c-12 -8 -16 -19 -12 -31 7 -16 9 -16 30 -2 25 17 35 47 15
47 -8 0 -23 -6 -33 -14z"/>
<path d="M0 443 c0 -22 3 -24 23 -18 12 4 35 9 50 12 43 8 27 26 -26 29 -45 3
-47 2 -47 -23z"/>
<path d="M1195 430 c-3 -5 3 -10 15 -10 12 0 18 5 15 10 -3 6 -10 10 -15 10
-5 0 -12 -4 -15 -10z"/>
<path d="M1983 400 c-2 -32 1 -40 16 -40 10 0 26 9 36 20 17 19 17 20 -6 39
-35 30 -45 26 -46 -19z"/>
<path d="M11 401 c-8 -5 -11 -16 -8 -25 7 -18 34 -21 56 -7 12 8 12 12 2 25
-15 18 -29 20 -50 7z"/>
<path d="M1187 369 c-31 -16 -36 -24 -31 -43 4 -19 0 -25 -26 -36 -40 -17 -46
-27 -25 -50 13 -15 14 -22 5 -40 -6 -12 -9 -32 -6 -45 4 -17 1 -25 -13 -30
-32 -10 -53 5 -46 32 3 14 1 40 -5 59 -10 28 -16 34 -41 34 -24 0 -29 -4 -29
-25 0 -14 4 -25 8 -25 8 0 42 -52 42 -64 0 -16 -43 -3 -62 19 -12 14 -25 25
-30 25 -12 0 -10 -44 3 -57 8 -8 8 -13 0 -17 -20 -12 -12 -25 24 -40 26 -11
35 -21 35 -38 0 -23 2 -24 111 -27 101 -2 111 -1 105 14 -3 9 -6 23 -6 31 0 8
-6 13 -12 11 -8 -1 -14 11 -16 28 -2 17 -11 38 -19 47 -10 11 -14 28 -10 46 3
16 1 34 -6 41 -14 14 0 29 33 31 41 3 44 1 25 -20 -9 -10 -15 -26 -11 -35 8
-22 35 -6 70 40 27 35 27 37 11 55 -12 14 -25 18 -42 14 -30 -8 -58 13 -42 32
16 19 46 17 58 -3 9 -17 10 -17 16 -1 10 25 2 52 -15 55 -8 1 -32 -7 -53 -18z
m-157 -289 c0 -13 -7 -20 -20 -20 -13 0 -20 7 -20 20 0 13 7 20 20 20 13 0 20
-7 20 -20z m101 -10 c5 0 9 -8 9 -19 0 -14 -7 -18 -37 -17 -27 1 -39 6 -41 18
-3 17 22 29 46 22 8 -2 18 -4 23 -4z"/>
<path d="M895 366 c-15 -11 -17 -22 -12 -62 4 -34 1 -55 -9 -68 -8 -11 -14
-34 -14 -51 0 -17 -7 -40 -15 -51 -15 -19 -15 -19 -32 2 -10 12 -26 24 -35 27
-19 7 -24 42 -8 52 15 9 12 45 -4 45 -8 0 -21 3 -30 6 -13 5 -16 -1 -16 -29 0
-41 -24 -71 -51 -64 -11 3 -19 1 -19 -5 0 -6 -7 -7 -15 -4 -20 7 -29 -17 -16
-42 18 -34 -13 -48 -104 -46 -60 1 -80 5 -80 15 0 7 11 16 25 19 20 5 26 13
28 43 3 39 -14 52 -20 15 -4 -32 -32 -29 -36 3 -3 23 -8 27 -35 25 -26 -1 -32
3 -32 19 0 16 6 20 32 19 27 -2 33 3 42 29 10 27 8 33 -16 58 -16 16 -36 29
-45 29 -21 0 -22 -4 -7 -32 14 -26 -6 -41 -33 -27 -25 13 -36 -15 -14 -36 9
-9 16 -22 16 -28 -1 -19 -26 -47 -43 -47 -14 0 -27 -20 -27 -42 0 -6 21 -7 56
-2 43 5 58 3 65 -7 12 -19 11 -25 -6 -43 -14 -14 -13 -17 15 -31 18 -9 30 -23
30 -35 0 -24 34 -27 56 -5 20 19 48 19 64 0 7 -8 23 -15 36 -15 21 0 23 4 18
25 -5 20 -2 25 13 25 28 0 66 38 58 59 -18 42 -18 51 1 45 11 -4 24 -11 31
-16 7 -6 25 -7 40 -4 22 5 31 2 41 -15 17 -27 3 -39 -45 -39 -37 0 -44 -8 -37
-38 8 -27 23 -32 70 -22 30 7 41 6 47 -6 6 -10 28 -14 85 -14 61 1 73 3 58 12
-10 6 -37 11 -60 12 -66 2 -90 32 -42 54 21 9 23 15 18 60 -4 48 -3 50 27 60
l32 11 -7 63 c-5 52 -3 66 10 77 32 27 -13 44 -49 17z"/>
<path d="M990 356 c0 -13 -7 -26 -15 -30 -8 -3 -15 -12 -15 -21 0 -22 18 -19
25 5 3 11 15 20 25 20 9 0 20 9 23 19 6 24 0 31 -25 31 -12 0 -18 -7 -18 -24z"/>
<path d="M1040 308 c0 -48 41 -64 57 -23 7 19 -3 30 -34 40 -19 5 -23 3 -23
-17z"/>
<path d="M43 297 c-34 -8 -43 -14 -43 -31 0 -17 6 -22 27 -21 25 0 28 -4 34
-45 7 -50 -9 -80 -43 -80 -11 0 -18 -7 -18 -20 0 -25 40 -27 80 -3 24 14 28
21 23 45 -7 36 11 58 48 58 24 0 29 -4 29 -23 0 -12 -7 -32 -15 -45 -12 -16
-13 -26 -5 -42 9 -17 8 -20 -13 -20 -35 0 -52 -23 -35 -49 18 -30 35 -26 54
11 9 18 23 37 30 41 8 4 14 20 14 34 0 14 8 31 17 38 15 11 15 17 5 39 -6 14
-18 26 -26 26 -7 0 -19 7 -26 15 -7 8 -28 15 -46 15 -35 0 -42 8 -22 28 8 8 8
15 -2 27 -7 8 -15 14 -19 14 -3 -1 -25 -6 -48 -12z"/>
<path d="M488 289 c-20 -12 -4 -44 22 -44 20 0 26 -6 28 -27 3 -26 7 -28 47
-28 50 0 61 10 43 39 -9 15 -19 18 -40 14 -28 -5 -39 9 -17 23 18 11 -8 29
-42 29 -17 0 -35 -3 -41 -6z"/>
<path d="M1930 296 c0 -2 7 -6 15 -10 8 -3 15 -1 15 4 0 6 -7 10 -15 10 -8 0
-15 -2 -15 -4z"/>
<path d="M1651 240 c-20 -17 -22 -22 -10 -37 8 -9 14 -28 14 -42 0 -22 4 -26
30 -26 23 0 30 4 30 20 0 11 -4 26 -10 34 -5 7 -8 26 -7 42 4 34 -12 37 -47 9z"/>
<path d="M235 240 c-9 -15 3 -27 38 -36 26 -6 28 -4 25 17 -2 17 -10 25 -30
27 -14 2 -29 -2 -33 -8z"/>
<path d="M1749 214 c-5 -16 -7 -44 -4 -64 5 -32 2 -40 -37 -81 -53 -56 -81
-65 -120 -37 -26 18 -31 19 -46 5 -28 -25 -82 -26 -146 -5 -46 16 -60 18 -66
8 -22 -36 -3 -40 201 -40 163 0 199 2 199 14 0 8 7 16 15 20 8 3 15 16 15 30
0 31 14 40 39 26 31 -16 36 5 11 47 -22 38 -22 40 12 57 38 19 28 41 -20 44
-38 3 -43 1 -53 -24z"/>
<path d="M0 170 c0 -19 3 -21 12 -12 9 9 9 15 0 24 -9 9 -12 7 -12 -12z"/>
<path d="M1260 176 c0 -22 17 -28 24 -10 9 22 8 24 -9 24 -8 0 -15 -6 -15 -14z"/>
<path d="M2344 175 c-9 -23 4 -47 23 -43 11 2 19 14 21 31 3 22 -1 27 -18 27
-11 0 -23 -7 -26 -15z"/>
<path d="M2410 171 c0 -6 5 -13 11 -16 6 -5 4 -16 -7 -33 -16 -24 -16 -26 2
-39 10 -7 21 -13 26 -13 16 0 8 -30 -11 -40 -25 -13 -31 -13 -31 3 0 6 -12 23
-26 36 -20 19 -27 21 -37 12 -9 -10 -7 -16 11 -28 12 -9 22 -24 22 -34 0 -17
8 -19 61 -19 l62 0 -6 40 c-3 22 -1 43 4 46 5 3 9 25 9 50 l0 44 -45 0 c-25 0
-45 -4 -45 -9z m70 -38 c0 -13 -3 -13 -15 -3 -8 7 -12 16 -9 21 8 13 24 1 24
-18z"/>
<path d="M1200 146 c0 -18 34 -55 58 -64 61 -24 68 -23 81 4 15 33 7 41 -44
48 -22 3 -52 8 -67 12 -16 3 -28 3 -28 0z m100 -42 c0 -2 -9 -4 -21 -4 -11 0
-18 4 -14 10 5 8 35 3 35 -6z"/>
<path d="M1510 110 c-9 -17 -7 -22 15 -30 50 -19 62 -2 23 31 -26 23 -25 23
-38 -1z"/>
<path d="M1617 103 c-14 -13 -6 -33 13 -33 13 0 20 7 20 20 0 19 -20 27 -33
13z"/>
<path d="M247 94 c-4 -4 -7 -24 -7 -45 0 -20 -6 -40 -12 -42 -7 -3 -1 -6 14
-6 18 -1 29 5 33 18 7 22 -16 86 -28 75z"/>
<path d="M326 83 c-12 -12 -5 -23 14 -23 11 0 20 4 20 9 0 11 -26 22 -34 14z"/>
<path d="M2255 49 c-4 -18 -16 -34 -28 -39 -20 -8 -18 -9 10 -9 17 -1 34 5 36
12 4 10 6 10 6 0 1 -20 31 -15 31 5 -1 64 -43 88 -55 31z"/>
<path d="M45 50 c-4 -6 -3 -14 0 -20 9 -15 35 -12 35 4 0 17 -27 29 -35 16z"/>
<path d="M300 15 c0 -11 12 -15 48 -15 l47 1 -40 14 c-50 18 -55 18 -55 0z"/>
<path d="M655 10 c3 -5 10 -10 16 -10 5 0 9 5 9 10 0 6 -7 10 -16 10 -8 0 -12
-4 -9 -10z"/>
<path d="M2005 10 c-4 -6 5 -10 19 -10 14 0 26 5 26 10 0 6 -9 10 -19 10 -11
0 -23 -4 -26 -10z"/>
</g>
</svg>
