<svg xmlns:xlink="http://www.w3.org/1999/xlink" xmlns="http://www.w3.org/2000/svg" viewBox="0 0 79.707 36" id="svg11460090092" width="79.707"  height="36" ><path d="M 44.434 12.414 C 44.434 12.414 42.185 12.71 40.874 13.314 C 39.649 13.879 37.04 14.887 38.004 15.283 C 38.969 15.679 41.321 13.722 43.163 13.831 C 43.992 13.88 43.978 14.46 44.746 14.676 C 45.993 15.026 46.726 13.85 48.072 13.596 C 49.041 13.412 49.543 13.825 50.439 13.596 C 50.759 13.514 50.916 13.393 51.236 13.314 C 52.103 13.101 53.521 13.37 53.521 13.37 M 53.521 13.37 C 53.521 13.37 54.92 13.198 55.884 13.198 M 53.521 13.37 C 53.521 13.37 54.214 12.447 54.723 12.195 C 55.303 11.906 55.986 11.528 56.359 11.931 C 56.72 12.32 56.388 13.03 55.884 13.198 M 55.884 13.198 C 56.601 12.912 57.039 12.678 57.732 12.3 C 57.943 12.185 59.237 12.669 60.16 12.195 C 62.113 11.192 60.318 13.462 61.004 14.095 C 61.995 15.01 62.412 10.332 64.066 10.611 C 65.034 10.775 64.606 11.844 65.438 12.195 C 66.468 12.629 68.025 11.985 68.025 11.985 M 68.025 11.985 C 68.025 11.985 69.165 9.128 70.136 9.767 C 70.708 10.143 70.882 10.053 70.717 10.717 M 68.025 11.985 C 68.025 11.985 69.806 11.371 70.717 10.717 M 70.717 10.717 C 71.298 10.299 71.891 10.013 72.598 10.276 C 73.756 10.707 71.654 12.787 72.776 13.303 C 73.8 13.774 75.309 11.509 75.309 11.509" fill="#000000" stroke-width="0.5px" stroke="#858282" stroke-linecap="round" stroke-miterlimit="10" stroke-dasharray="" fill-opacity="0"></path><path d="M 5.331 8.829 L 0.566 35.064 L 0.422 35.855 C 0.422 35.855 0.436 24.175 2.111 16.958 C 3.055 12.894 4.276 9.779 5.331 6.77 C 6.387 3.762 8.921 0.172 11.613 0.436 C 13.076 0.579 13.628 6.197 14.147 11.152 C 14.582 15.315 13.567 16.306 14.78 19.228 C 15.361 20.627 16.934 17.404 17.208 16.694 C 24.493 -2.15 31.038 1.492 31.038 1.492 L 32.147 2.02 C 32.147 2.02 33.311 2.819 33.889 4.448 C 34.466 6.076 34.314 5.617 34.891 7.245 C 35.359 8.566 35.103 12.999 35.314 15.586 C 35.789 17.169 35.905 17.144 36.475 17.486 C 38.323 18.594 39.009 18.119 39.009 18.119" fill="#000000" stroke-width="0.5px" stroke="#858282" stroke-linecap="round" stroke-miterlimit="10" stroke-dasharray="" fill-opacity="0"></path><path d="M 78.44 9.674 C 78.44 9.324 78.723 9.04 79.073 9.04 C 79.423 9.04 79.707 9.324 79.707 9.674 C 79.707 10.023 79.423 10.307 79.073 10.307 C 78.723 10.307 78.44 10.023 78.44 9.674 Z" fill="#858282"></path></svg>